<svg width="570" height="377" viewBox="0 0 570 377" fill="none" xmlns="http://www.w3.org/2000/svg">
<g clip-path="url(#clip0)">
<path d="M189.274 219.27L194.9 216.022L200.526 219.27L194.9 222.518L189.274 219.27Z" fill="#DEF6FF"/>
<path d="M201.251 226.128L206.877 222.879L212.502 226.128L206.877 229.376L201.251 226.128Z" fill="#DEF6FF"/>
<path d="M213.047 232.986L218.672 229.737L224.298 232.986L218.672 236.234L213.047 232.986Z" fill="#DEF6FF"/>
<path d="M224.842 239.663L230.467 236.415L236.093 239.663L230.467 242.912L224.842 239.663Z" fill="#DEF6FF"/>
<path d="M236.819 246.521L242.445 243.272L248.07 246.521L242.445 249.769L236.819 246.521Z" fill="#DEF6FF"/>
<g opacity="0.5">
<g opacity="0.5">
<path opacity="0.5" d="M465.653 330.259H146.265V377H465.653V330.259Z" fill="#DEF6FF"/>
<path opacity="0.5" d="M305.708 373.757C384.684 373.314 448.659 364.39 448.599 353.825C448.539 343.26 384.467 335.055 305.491 335.498C226.515 335.941 162.541 344.865 162.601 355.43C162.661 365.995 226.732 374.2 305.708 373.757Z" fill="#DEF6FF"/>
<path opacity="0.5" d="M305.163 373.577C383.838 373.136 447.569 364.294 447.51 353.829C447.45 343.363 383.623 335.237 304.948 335.679C226.272 336.12 162.541 344.962 162.601 355.427C162.66 365.893 226.487 374.019 305.163 373.577Z" fill="#DEF6FF"/>
<path opacity="0.5" d="M304.8 373.576C383.175 373.137 446.662 364.297 446.603 353.831C446.543 343.366 382.96 335.238 304.585 335.678C226.21 336.118 162.723 344.958 162.782 355.423C162.842 365.889 226.425 374.016 304.8 373.576Z" fill="#DEF6FF"/>
<path opacity="0.5" d="M304.256 373.577C382.33 373.139 445.573 364.3 445.514 353.835C445.455 343.369 382.115 335.24 304.041 335.678C225.966 336.116 162.723 344.955 162.782 355.421C162.842 365.886 226.181 374.015 304.256 373.577Z" fill="#DEF6FF"/>
<path opacity="0.5" d="M303.711 373.397C381.485 372.96 444.485 364.204 444.426 353.838C444.367 343.472 381.272 335.423 303.498 335.859C225.725 336.295 162.724 345.052 162.783 355.418C162.842 365.784 225.938 373.833 303.711 373.397Z" fill="#DEF6FF"/>
<path opacity="0.5" d="M303.349 373.396C380.721 372.962 443.396 364.207 443.338 353.841C443.279 343.475 380.508 335.424 303.136 335.858C225.763 336.292 163.088 345.047 163.147 355.413C163.205 365.779 225.976 373.83 303.349 373.396Z" fill="#FEFFFF"/>
<path opacity="0.5" d="M302.802 373.216C379.874 372.784 442.306 364.111 442.247 353.845C442.189 343.579 379.663 335.607 302.591 336.039C225.519 336.472 163.087 345.144 163.145 355.41C163.204 365.676 225.73 373.648 302.802 373.216Z" fill="#FEFFFF"/>
<path opacity="0.5" d="M302.258 373.216C379.029 372.785 441.217 364.114 441.159 353.848C441.101 343.582 378.818 335.609 302.047 336.039C225.275 336.47 163.087 345.141 163.145 355.407C163.204 365.673 225.486 373.647 302.258 373.216Z" fill="#FEFEFF"/>
<path opacity="0.5" d="M301.895 373.035C378.365 372.606 440.31 364.017 440.252 353.85C440.195 343.684 378.156 335.79 301.686 336.219C225.215 336.648 163.27 345.237 163.328 355.404C163.386 365.57 225.424 373.464 301.895 373.035Z" fill="#FEFEFF"/>
<path opacity="0.5" d="M301.35 373.035C377.52 372.608 439.221 364.02 439.164 353.854C439.106 343.687 377.311 335.792 301.141 336.22C224.972 336.647 163.27 345.235 163.328 355.401C163.386 365.567 225.18 373.463 301.35 373.035Z" fill="#FEFEFF"/>
<path opacity="0.5" d="M300.806 373.036C376.675 372.61 438.132 364.023 438.075 353.857C438.017 343.691 376.466 335.794 300.597 336.22C224.728 336.645 163.27 345.232 163.328 355.398C163.386 365.565 224.937 373.461 300.806 373.036Z" fill="#FDFEFF"/>
<path opacity="0.5" d="M300.259 372.855C375.828 372.431 437.042 363.927 436.985 353.86C436.928 343.794 375.621 335.977 300.053 336.401C224.484 336.825 163.27 345.329 163.327 355.396C163.384 365.462 224.691 373.279 300.259 372.855Z" fill="#FDFEFE"/>
<path opacity="0.5" d="M299.897 372.855C375.165 372.433 436.135 363.93 436.078 353.863C436.021 343.796 374.958 335.978 299.69 336.4C224.422 336.822 163.452 345.325 163.509 355.392C163.566 365.459 224.629 373.277 299.897 372.855Z" fill="#FDFEFE"/>
<path opacity="0.5" d="M299.352 372.674C374.319 372.254 435.047 363.833 434.99 353.866C434.933 343.899 374.115 336.16 299.147 336.581C224.18 337.001 163.453 345.422 163.51 355.389C163.566 365.356 224.385 373.095 299.352 372.674Z" fill="#FDFEFE"/>
<path opacity="0.5" d="M298.808 372.675C373.474 372.256 433.958 363.837 433.901 353.87C433.845 343.902 373.27 336.162 298.603 336.581C223.936 337 163.453 345.419 163.51 355.386C163.566 365.353 224.141 373.094 298.808 372.675Z" fill="#FCFDFE"/>
<path opacity="0.5" d="M298.443 372.674C372.809 372.257 433.049 363.839 432.992 353.872C432.935 343.905 372.604 336.163 298.238 336.58C223.872 336.998 163.633 345.416 163.689 355.383C163.746 365.35 224.077 373.091 298.443 372.674Z" fill="#FCFDFE"/>
<path opacity="0.5" d="M297.899 372.494C371.864 372.079 431.779 363.744 431.723 353.876C431.667 344.009 371.661 336.346 297.696 336.761C223.731 337.176 163.816 345.512 163.872 355.379C163.928 365.246 223.934 372.909 297.899 372.494Z" fill="#FCFDFE"/>
<path opacity="0.5" d="M297.355 372.675C371.02 372.262 430.691 363.927 430.635 354.06C430.579 344.193 370.817 336.529 297.153 336.942C223.488 337.355 163.817 345.689 163.873 355.557C163.929 365.424 223.691 373.088 297.355 372.675Z" fill="#FBFDFE"/>
<path opacity="0.5" d="M429.723 353.9C429.723 363.645 370.382 371.947 296.886 372.308C223.391 372.669 163.868 365.089 163.868 355.344C163.868 345.598 223.209 337.297 296.705 336.936C370.019 336.575 429.723 344.155 429.723 353.9Z" fill="#FBFDFE"/>
<path opacity="0.5" d="M296.446 372.494C369.509 372.084 428.693 363.834 428.638 354.066C428.583 344.298 369.308 336.712 296.245 337.122C223.182 337.532 163.998 345.782 164.053 355.55C164.109 365.318 223.383 372.904 296.446 372.494Z" fill="#FBFCFE"/>
<path opacity="0.5" d="M295.902 372.314C368.664 371.906 427.605 363.737 427.55 354.069C427.495 344.401 368.465 336.894 295.703 337.303C222.941 337.711 164 345.879 164.054 355.547C164.109 365.215 223.139 372.722 295.902 372.314Z" fill="#FAFCFE"/>
<path opacity="0.5" d="M295.357 372.314C367.819 371.907 426.516 363.74 426.461 354.072C426.406 344.404 367.62 336.896 295.158 337.303C222.697 337.71 164 345.877 164.054 355.545C164.109 365.213 222.895 372.721 295.357 372.314Z" fill="#FAFCFD"/>
<path opacity="0.5" d="M294.994 372.313C367.155 371.909 425.609 363.743 425.554 354.075C425.499 344.407 366.957 336.898 294.796 337.302C222.635 337.707 164.181 345.873 164.236 355.541C164.291 365.209 222.833 372.718 294.994 372.313Z" fill="#FAFCFD"/>
<path opacity="0.5" d="M294.448 372.133C366.308 371.73 424.518 363.647 424.464 354.078C424.41 344.51 366.112 337.08 294.251 337.483C222.391 337.886 164.181 345.97 164.235 355.538C164.289 365.107 222.588 372.536 294.448 372.133Z" fill="#F9FCFD"/>
<path opacity="0.5" d="M293.903 372.133C365.463 371.732 423.43 363.65 423.375 354.081C423.321 344.513 365.266 337.082 293.707 337.483C222.147 337.885 164.181 345.967 164.235 355.535C164.289 365.104 222.344 372.535 293.903 372.133Z" fill="#F9FBFD"/>
<path opacity="0.5" d="M293.539 371.952C364.798 371.553 422.521 363.553 422.467 354.084C422.413 344.615 364.603 337.264 293.344 337.663C222.085 338.063 164.362 346.063 164.416 355.532C164.469 365 222.28 372.352 293.539 371.952Z" fill="#F8FBFD"/>
<path opacity="0.5" d="M292.994 371.953C363.952 371.555 421.432 363.556 421.378 354.087C421.325 344.619 363.758 337.265 292.8 337.663C221.841 338.061 164.362 346.06 164.416 355.529C164.469 364.997 222.036 372.351 292.994 371.953Z" fill="#F8FBFD"/>
<path opacity="0.5" d="M292.45 371.953C363.007 371.557 420.162 363.56 420.108 354.092C420.054 344.623 362.813 337.268 292.255 337.664C221.698 338.059 164.544 346.056 164.597 355.525C164.651 364.994 221.893 372.349 292.45 371.953Z" fill="#F8FAFD"/>
<path opacity="0.5" d="M419.196 354.081C419.196 363.465 362.396 371.406 291.985 371.767C221.756 372.127 164.593 364.909 164.593 355.524C164.593 346.14 221.393 338.199 291.804 337.838C362.033 337.297 419.196 344.696 419.196 354.081Z" fill="#F7FAFC"/>
<path opacity="0.5" d="M291.543 371.772C361.499 371.38 418.166 363.466 418.113 354.097C418.06 344.728 361.306 337.451 291.35 337.844C221.394 338.236 164.727 346.15 164.78 355.519C164.833 364.888 221.587 372.165 291.543 371.772Z" fill="#F7FAFC"/>
<path opacity="0.5" d="M290.997 371.592C360.653 371.201 417.077 363.37 417.024 354.101C416.972 344.831 360.462 337.634 290.807 338.025C221.151 338.415 164.727 346.246 164.78 355.516C164.832 364.785 221.342 371.983 290.997 371.592Z" fill="#F6FAFC"/>
<path opacity="0.5" d="M416.112 354.081C416.112 363.284 360.038 371.225 290.535 371.586C221.213 371.947 164.957 364.728 164.775 355.524C164.775 346.32 220.85 338.38 290.353 338.019C359.675 337.658 415.931 344.696 416.112 354.081Z" fill="#F6F9FC"/>
<path opacity="0.5" d="M290.09 371.591C359.144 371.204 415.081 363.376 415.028 354.106C414.976 344.837 358.954 337.637 289.9 338.024C220.846 338.412 164.909 346.24 164.961 355.509C165.014 364.779 221.036 371.979 290.09 371.591Z" fill="#F5F9FC"/>
<path opacity="0.5" d="M289.544 371.411C358.297 371.026 413.99 363.28 413.938 354.11C413.886 344.94 358.109 337.819 289.355 338.205C220.602 338.591 164.908 346.337 164.96 355.507C165.012 364.676 220.79 371.797 289.544 371.411Z" fill="#F5F9FC"/>
<path opacity="0.5" d="M288.999 371.412C357.452 371.028 412.902 363.283 412.85 354.113C412.798 344.943 357.263 337.821 288.811 338.205C220.358 338.589 164.908 346.334 164.96 355.504C165.012 364.674 220.546 371.796 288.999 371.412Z" fill="#F4F9FC"/>
<path opacity="0.5" d="M288.635 371.231C356.787 370.848 411.994 363.186 411.942 354.116C411.891 345.046 356.601 338.003 288.449 338.385C220.297 338.767 165.091 346.43 165.142 355.5C165.193 364.57 220.483 371.613 288.635 371.231Z" fill="#F4F8FB"/>
<path opacity="0.5" d="M288.093 371.231C355.944 370.85 410.907 363.189 410.855 354.119C410.804 345.049 355.758 338.005 287.907 338.385C220.055 338.766 165.092 346.427 165.144 355.497C165.195 364.567 220.242 371.611 288.093 371.231Z" fill="#F3F8FB"/>
<path opacity="0.5" d="M287.545 371.051C355.096 370.672 409.816 363.093 409.765 354.122C409.714 345.152 354.912 338.187 287.361 338.566C219.81 338.945 165.091 346.524 165.142 355.495C165.193 364.465 219.995 371.43 287.545 371.051Z" fill="#F3F8FB"/>
<path opacity="0.5" d="M287.184 371.05C354.434 370.673 408.909 363.095 408.858 354.125C408.808 345.154 354.249 338.188 286.999 338.565C219.749 338.943 165.274 346.52 165.325 355.491C165.375 364.461 219.934 371.427 287.184 371.05Z" fill="#F2F7FB"/>
<path opacity="0.5" d="M286.638 371.05C353.487 370.675 407.638 363.099 407.587 354.129C407.536 345.159 353.303 338.191 286.454 338.566C219.605 338.941 165.454 346.517 165.505 355.487C165.556 364.457 219.789 371.425 286.638 371.05Z" fill="#F2F7FB"/>
<path opacity="0.5" d="M406.494 354.081C406.494 362.924 352.597 370.503 285.997 370.864C219.398 371.225 165.319 364.367 165.319 355.524C165.319 346.681 219.216 339.102 285.816 338.741C352.597 338.38 406.494 345.238 406.494 354.081Z" fill="#F1F7FB"/>
<path opacity="0.5" d="M285.55 370.87C351.797 370.499 405.461 363.006 405.411 354.136C405.36 345.265 351.615 338.375 285.367 338.747C219.12 339.118 165.456 346.611 165.506 355.481C165.556 364.352 219.302 371.242 285.55 370.87Z" fill="#F1F6FA"/>
<path opacity="0.5" d="M285.185 370.689C351.132 370.319 404.552 362.909 404.502 354.138C404.453 345.367 350.952 338.557 285.004 338.927C219.057 339.297 165.637 346.707 165.687 355.478C165.737 364.249 219.238 371.059 285.185 370.689Z" fill="#F0F6FA"/>
<path opacity="0.5" d="M403.408 354.081C403.408 362.924 350.237 370.323 284.545 370.684C218.852 371.045 165.681 364.187 165.5 355.524C165.5 346.681 218.671 339.282 284.363 338.921C350.056 338.56 403.408 345.418 403.408 354.081Z" fill="#F0F6FA"/>
<path opacity="0.5" d="M402.319 354.081C402.319 362.743 349.511 370.142 284.181 370.503C218.852 370.864 165.862 364.006 165.862 355.344C165.862 346.681 218.67 339.282 284 338.921C349.329 338.56 402.319 345.418 402.319 354.081Z" fill="#EFF5FA"/>
<path opacity="0.5" d="M401.414 354.081C401.414 362.743 348.787 370.142 283.82 370.503C218.854 370.864 166.046 364.187 166.046 355.524C166.046 346.862 218.672 339.463 283.639 339.102C348.606 338.741 401.232 345.418 401.414 354.081Z" fill="#EEF5FA"/>
<path opacity="0.5" d="M400.325 354.081C400.325 362.743 347.88 369.962 283.276 370.323C218.491 370.684 166.046 364.006 166.046 355.344C166.046 346.681 218.491 339.463 283.095 339.102C347.698 338.741 400.143 345.418 400.325 354.081Z" fill="#EEF5FA"/>
<path opacity="0.5" d="M282.642 370.329C347.086 369.967 399.288 362.725 399.24 354.154C399.191 345.582 346.91 338.926 282.466 339.288C218.022 339.649 165.82 346.891 165.868 355.463C165.917 364.035 218.198 370.69 282.642 370.329Z" fill="#EDF4F9"/>
<path opacity="0.5" d="M398.147 354.081C398.147 362.563 346.246 369.781 282.187 370.142C218.128 370.503 166.046 363.826 166.046 355.344C166.046 346.862 217.947 339.643 282.006 339.282C346.065 338.921 398.147 345.599 398.147 354.081Z" fill="#EDF4F9"/>
<path opacity="0.5" d="M281.733 370.148C345.575 369.79 397.291 362.631 397.243 354.159C397.195 345.687 345.401 339.11 281.559 339.468C217.716 339.826 166.001 346.985 166.049 355.457C166.097 363.929 217.89 370.506 281.733 370.148Z" fill="#ECF3F9"/>
<path opacity="0.5" d="M281.189 370.148C344.63 369.792 396.021 362.636 395.973 354.164C395.925 345.692 344.456 339.112 281.015 339.468C217.573 339.824 166.183 346.981 166.231 355.453C166.279 363.925 217.747 370.504 281.189 370.148Z" fill="#EBF3F9"/>
<path opacity="0.5" d="M395.062 354.08C395.062 362.563 343.888 369.601 280.736 369.962C217.584 370.323 166.228 363.826 166.228 355.344C166.228 346.862 217.402 339.823 280.554 339.462C343.706 339.102 395.062 345.779 395.062 354.08Z" fill="#EBF3F9"/>
<path opacity="0.5" d="M393.973 354.08C393.973 362.563 343.162 369.601 280.191 369.962C217.402 370.323 166.409 363.826 166.228 355.344C166.228 346.862 217.039 339.823 280.01 339.463C342.98 339.282 393.973 345.779 393.973 354.08Z" fill="#EAF2F8"/>
<path opacity="0.5" d="M279.734 369.967C342.274 369.617 392.933 362.545 392.886 354.173C392.838 345.8 342.102 339.298 279.562 339.649C217.023 340 166.363 347.071 166.41 355.443C166.458 363.816 217.195 370.318 279.734 369.967Z" fill="#EAF2F8"/>
<path opacity="0.5" d="M279.191 369.787C341.43 369.438 391.847 362.449 391.8 354.176C391.753 345.904 341.26 339.48 279.021 339.829C216.783 340.179 166.366 347.168 166.413 355.441C166.46 363.713 216.953 370.137 279.191 369.787Z" fill="#E9F2F8"/>
<path opacity="0.5" d="M390.887 354.261C390.887 362.563 340.801 369.601 278.92 369.781C217.038 370.142 166.771 363.645 166.771 355.524C166.771 347.223 216.856 340.185 278.738 340.004C340.62 339.463 390.706 345.96 390.887 354.261Z" fill="#E8F1F8"/>
<path opacity="0.5" d="M389.798 354.261C389.798 362.563 339.894 369.42 278.375 369.781C216.675 370.142 166.771 363.826 166.771 355.524C166.771 347.223 216.675 340.365 278.194 340.004C339.712 339.643 389.798 345.959 389.798 354.261Z" fill="#E8F1F7"/>
<path opacity="0.5" d="M277.738 369.607C339.075 369.263 388.76 362.358 388.714 354.185C388.668 346.012 338.907 339.666 277.57 340.01C216.233 340.354 166.547 347.258 166.594 355.431C166.64 363.604 216.401 369.951 277.738 369.607Z" fill="#E7F0F7"/>
<path opacity="0.5" d="M277.375 369.606C338.411 369.264 387.853 362.361 387.807 354.188C387.761 346.015 338.243 339.667 277.207 340.009C216.171 340.352 166.729 347.255 166.775 355.428C166.822 363.601 216.339 369.948 277.375 369.606Z" fill="#E6F0F7"/>
<path opacity="0.5" d="M276.829 369.426C337.564 369.085 386.763 362.264 386.717 354.191C386.671 346.118 337.398 339.849 276.663 340.19C215.927 340.531 166.729 347.351 166.774 355.425C166.82 363.498 216.093 369.767 276.829 369.426Z" fill="#E6EFF7"/>
<path opacity="0.5" d="M276.284 369.426C336.719 369.087 385.674 362.268 385.628 354.194C385.582 346.121 336.553 339.851 276.118 340.19C215.683 340.529 166.729 347.349 166.774 355.422C166.82 363.495 215.849 369.765 276.284 369.426Z" fill="#E5EFF7"/>
<path opacity="0.5" d="M275.92 369.245C335.954 368.908 384.584 362.172 384.539 354.198C384.493 346.224 335.79 340.033 275.756 340.37C215.722 340.707 167.091 347.444 167.137 355.418C167.182 363.391 215.886 369.582 275.92 369.245Z" fill="#E4EFF6"/>
<path opacity="0.5" d="M275.377 369.245C335.11 368.91 383.497 362.175 383.452 354.201C383.407 346.227 334.947 340.035 275.213 340.37C215.48 340.705 167.093 347.441 167.139 355.415C167.184 363.388 215.644 369.58 275.377 369.245Z" fill="#E4EEF6"/>
<path opacity="0.5" d="M382.359 354.261C382.359 362.202 334.269 368.879 274.747 369.24C215.224 369.601 167.135 363.465 166.953 355.524C166.953 347.584 215.043 340.906 274.565 340.545C334.088 340.184 382.359 346.32 382.359 354.261Z" fill="#E3EEF6"/>
<path opacity="0.5" d="M381.45 354.261C381.45 362.202 333.542 368.879 274.382 369.24C215.223 369.601 167.314 363.465 167.133 355.524C167.133 347.584 215.041 340.906 274.201 340.545C333.36 340.184 381.268 346.32 381.45 354.261Z" fill="#E2EDF6"/>
<path opacity="0.5" d="M273.924 369.065C332.756 368.735 380.412 362.084 380.367 354.21C380.322 346.336 332.594 340.221 273.763 340.551C214.931 340.881 167.275 347.532 167.32 355.406C167.365 363.28 215.093 369.395 273.924 369.065Z" fill="#E1EDF6"/>
<path opacity="0.5" d="M379.273 354.261C379.273 362.021 331.909 368.698 273.293 369.059C214.678 369.42 167.314 363.284 167.314 355.524C167.314 347.764 214.678 341.087 273.293 340.726C331.727 340.365 379.273 346.501 379.273 354.261Z" fill="#E1ECF5"/>
<path opacity="0.5" d="M378.185 354.261C378.185 362.021 331.002 368.518 272.932 368.879C214.68 369.24 167.497 363.104 167.497 355.344C167.497 347.584 214.68 341.087 272.75 340.726C331.002 340.365 378.185 346.501 378.185 354.261Z" fill="#E0ECF5"/>
<path opacity="0.5" d="M377.096 354.261C377.096 362.021 330.276 368.518 272.387 368.879C214.498 369.24 167.497 363.284 167.497 355.524C167.497 347.764 214.317 341.267 272.206 340.906C330.095 340.545 377.096 346.501 377.096 354.261Z" fill="#DFECF5"/>
<path opacity="0.5" d="M376.189 354.261C376.189 362.021 329.551 368.518 272.024 368.699C214.498 369.06 167.679 363.104 167.679 355.344C167.679 347.584 214.317 341.087 271.843 340.906C329.369 340.545 376.007 346.501 376.189 354.261Z" fill="#DFEBF5"/>
<path opacity="0.5" d="M271.38 368.704C328.708 368.383 375.146 361.901 375.102 354.226C375.059 346.551 328.55 340.591 271.222 340.912C213.894 341.234 167.456 347.716 167.5 355.391C167.543 363.065 214.052 369.026 271.38 368.704Z" fill="#DEEBF4"/>
<path opacity="0.5" d="M271.018 368.523C328.045 368.203 374.24 361.803 374.197 354.228C374.154 346.653 327.89 340.772 270.862 341.092C213.835 341.412 167.64 347.812 167.683 355.387C167.726 362.962 213.991 368.843 271.018 368.523Z" fill="#DDEAF4"/>
<path opacity="0.5" d="M372.922 354.261C372.922 361.841 327.01 368.157 270.391 368.518C213.772 368.879 167.679 362.924 167.679 355.344C167.679 347.764 213.591 341.448 270.21 341.087C327.01 340.906 372.922 346.681 372.922 354.261Z" fill="#DCEAF4"/>
<path opacity="0.5" d="M269.928 368.344C326.254 368.028 371.88 361.711 371.838 354.236C371.796 346.761 326.1 340.957 269.775 341.273C213.449 341.589 167.822 347.905 167.865 355.381C167.907 362.856 213.603 368.66 269.928 368.344Z" fill="#DCE9F4"/>
<path opacity="0.5" d="M269.382 368.344C325.407 368.029 370.79 361.715 370.747 354.239C370.705 346.764 325.253 340.959 269.228 341.273C213.203 341.588 167.821 347.902 167.863 355.378C167.905 362.853 213.357 368.658 269.382 368.344Z" fill="#DBE9F3"/>
<path opacity="0.5" d="M369.835 354.261C369.835 361.66 324.649 367.977 268.938 368.338C213.226 368.699 168.04 362.924 167.858 355.344C167.858 347.945 213.045 341.628 268.756 341.267C324.468 341.087 369.835 346.862 369.835 354.261Z" fill="#DAE8F3"/>
<path opacity="0.5" d="M368.748 354.261C368.748 361.66 323.924 367.977 268.394 368.157C212.864 368.338 168.041 362.743 168.041 355.344C168.041 347.945 212.864 341.628 268.394 341.448C323.924 341.267 368.748 346.862 368.748 354.261Z" fill="#D9E8F3"/>
<path opacity="0.5" d="M267.93 368.163C323.053 367.854 367.705 361.624 367.663 354.249C367.622 346.873 322.902 341.145 267.779 341.454C212.656 341.763 168.004 347.993 168.045 355.368C168.087 362.744 212.807 368.472 267.93 368.163Z" fill="#D8E7F3"/>
<path opacity="0.5" d="M267.566 367.982C322.389 367.675 366.797 361.527 366.756 354.251C366.715 346.975 322.239 341.326 267.417 341.634C212.595 341.941 168.186 348.089 168.227 355.365C168.268 362.641 212.744 368.29 267.566 367.982Z" fill="#D8E7F2"/>
<path opacity="0.5" d="M365.663 354.261C365.663 361.48 321.566 367.616 267.124 367.977C212.683 368.338 168.404 362.563 168.404 355.344C168.404 348.125 212.502 341.989 266.943 341.628C321.384 341.448 365.663 347.042 365.663 354.261Z" fill="#D7E6F2"/>
<path opacity="0.5" d="M364.574 354.261C364.574 361.48 320.658 367.616 266.58 367.977C212.32 368.338 168.404 362.743 168.404 355.344C168.404 348.125 212.32 341.989 266.399 341.628C320.477 341.448 364.574 347.042 364.574 354.261Z" fill="#D6E6F2"/>
<path opacity="0.5" d="M266.113 367.801C320.033 367.499 363.711 361.436 363.67 354.26C363.63 347.084 319.886 341.511 265.965 341.814C212.045 342.116 168.367 348.179 168.408 355.355C168.448 362.532 212.192 368.104 266.113 367.801Z" fill="#D5E5F2"/>
<path opacity="0.5" d="M362.397 354.261C362.397 361.48 319.025 367.435 265.491 367.796C211.957 368.157 168.404 362.563 168.404 355.344C168.404 348.125 211.776 342.17 265.31 341.809C319.025 341.628 362.397 347.223 362.397 354.261Z" fill="#D4E5F1"/>
<path opacity="0.5" d="M361.489 354.261C361.489 361.299 318.299 367.435 265.128 367.616C211.776 367.977 168.586 362.382 168.586 355.344C168.586 348.305 211.776 342.17 264.947 341.989C318.118 341.628 361.308 347.223 361.489 354.261Z" fill="#D4E4F1"/>
<path opacity="0.5" d="M264.478 367.622C317.396 367.325 360.262 361.348 360.222 354.271C360.181 347.194 317.25 341.698 264.332 341.995C211.414 342.292 168.548 348.269 168.588 355.346C168.628 362.423 211.56 367.919 264.478 367.622Z" fill="#D3E4F1"/>
<path opacity="0.5" d="M264.117 367.621C316.734 367.326 359.356 361.35 359.316 354.273C359.276 347.197 316.589 341.699 263.971 341.994C211.354 342.29 168.732 348.266 168.772 355.342C168.812 362.419 211.499 367.916 264.117 367.621Z" fill="#D2E3F0"/>
<path opacity="0.5" d="M263.568 367.441C315.885 367.148 358.264 361.254 358.224 354.277C358.185 347.3 315.742 341.882 263.425 342.175C211.108 342.469 168.729 348.363 168.769 355.34C168.809 362.317 211.252 367.735 263.568 367.441Z" fill="#D1E3F0"/>
<path opacity="0.5" d="M263.024 367.441C315.04 367.149 357.175 361.257 357.136 354.28C357.096 347.303 314.897 341.884 262.881 342.176C210.865 342.468 168.729 348.36 168.769 355.337C168.809 362.314 211.008 367.733 263.024 367.441Z" fill="#D0E2F0"/>
<path opacity="0.5" d="M356.226 354.441C356.226 361.299 314.306 367.255 262.587 367.435C210.868 367.796 168.948 362.382 168.948 355.524C168.948 348.666 210.868 342.711 262.587 342.53C314.125 342.169 356.045 347.403 356.226 354.441Z" fill="#CFE2F0"/>
<path opacity="0.5" d="M262.119 367.261C313.533 366.972 355.181 361.163 355.142 354.286C355.103 347.409 313.392 342.067 261.977 342.356C210.563 342.644 168.914 348.453 168.953 355.33C168.992 362.208 210.704 367.549 262.119 367.261Z" fill="#CEE1EF"/>
<path opacity="0.5" d="M354.049 354.441C354.049 361.299 312.673 367.074 261.68 367.255C210.505 367.616 169.13 362.202 169.13 355.344C169.13 348.486 210.505 342.711 261.499 342.53C312.492 342.17 354.049 347.584 354.049 354.441Z" fill="#CEE1EF"/>
<path opacity="0.5" d="M261.209 367.26C312.023 366.975 353.184 361.25 353.146 354.472C353.107 347.694 311.884 342.431 261.07 342.716C210.257 343.001 169.096 348.727 169.134 355.504C169.173 362.282 210.396 367.545 261.209 367.26Z" fill="#CDE0EF"/>
<path opacity="0.5" d="M260.665 367.26C311.178 366.977 352.095 361.253 352.057 354.475C352.018 347.698 311.038 342.433 260.526 342.716C210.013 343 169.096 348.724 169.134 355.501C169.173 362.279 210.152 367.544 260.665 367.26Z" fill="#CCE0EF"/>
<path opacity="0.5" d="M260.121 367.08C310.333 366.798 351.007 361.156 350.969 354.479C350.931 347.801 310.195 342.616 259.983 342.897C209.771 343.179 169.097 348.821 169.135 355.499C169.173 362.177 209.908 367.362 260.121 367.08Z" fill="#CBDFEE"/>
<path opacity="0.5" d="M259.574 367.081C309.385 366.801 349.735 361.161 349.697 354.483C349.659 347.805 309.248 342.618 259.437 342.898C209.626 343.177 169.277 348.817 169.315 355.495C169.353 362.173 209.763 367.36 259.574 367.081Z" fill="#CADFEE"/>
<path opacity="0.5" d="M348.786 354.441C348.786 361.119 308.681 366.713 259.14 366.894C209.598 367.255 169.312 362.021 169.312 355.344C169.312 348.666 209.417 343.072 258.958 342.891C308.5 342.711 348.786 347.764 348.786 354.441Z" fill="#C9DEEE"/>
<path opacity="0.5" d="M347.697 354.441C347.697 360.938 307.774 366.533 258.595 366.894C209.417 367.255 169.493 362.021 169.312 355.524C169.312 349.027 209.235 343.433 258.414 343.072C307.774 342.711 347.697 347.764 347.697 354.441Z" fill="#C8DEED"/>
<path opacity="0.5" d="M258.124 366.9C307.033 366.625 346.651 361.07 346.614 354.492C346.577 347.914 306.898 342.804 257.988 343.078C209.079 343.352 169.461 348.907 169.498 355.486C169.536 362.064 209.214 367.174 258.124 366.9Z" fill="#C7DDED"/>
<path opacity="0.5" d="M257.759 366.719C306.367 366.446 345.742 360.973 345.706 354.494C345.669 348.016 306.234 342.985 257.626 343.258C209.017 343.53 169.642 349.003 169.679 355.482C169.716 361.961 209.15 366.991 257.759 366.719Z" fill="#C6DCED"/>
<path opacity="0.5" d="M344.613 354.442C344.613 360.938 305.596 366.353 257.144 366.533C208.872 366.894 169.675 361.841 169.675 355.344C169.675 348.847 208.691 343.433 257.144 343.252C305.415 342.892 344.613 347.945 344.613 354.442Z" fill="#C6DCED"/>
<path opacity="0.5" d="M343.524 354.441C343.524 360.938 304.689 366.352 256.599 366.533C208.51 366.713 169.675 361.841 169.675 355.344C169.675 348.847 208.51 343.433 256.599 343.252C304.508 343.072 343.524 347.945 343.524 354.441Z" fill="#C5DBEC"/>
<path opacity="0.5" d="M256.305 366.538C304.012 366.27 342.656 360.882 342.62 354.503C342.584 348.124 303.881 343.17 256.174 343.438C208.468 343.706 169.823 349.094 169.859 355.473C169.896 361.852 208.599 366.806 256.305 366.538Z" fill="#C4DBEC"/>
<path opacity="0.5" d="M341.527 354.442C341.527 360.758 303.237 366.172 255.873 366.353C208.509 366.533 170.037 361.66 170.037 355.344C170.037 349.028 208.327 343.614 255.691 343.433C303.055 343.253 341.346 348.125 341.527 354.442Z" fill="#C3DAEC"/>
<path opacity="0.5" d="M340.438 354.441C340.438 360.758 302.329 365.991 255.328 366.352C208.327 366.713 170.037 361.66 170.037 355.524C170.037 349.208 208.146 343.974 255.147 343.613C302.148 343.252 340.438 348.125 340.438 354.441Z" fill="#C2DAEB"/>
<path opacity="0.5" d="M254.853 366.358C301.658 366.095 339.572 360.792 339.536 354.513C339.5 348.233 301.529 343.356 254.724 343.618C207.92 343.881 170.006 349.184 170.042 355.463C170.078 361.743 208.049 366.62 254.853 366.358Z" fill="#C1D9EB"/>
<path opacity="0.5" d="M254.307 366.177C300.711 365.917 338.3 360.697 338.265 354.517C338.23 348.337 300.584 343.539 254.18 343.799C207.777 344.06 170.188 349.28 170.223 355.46C170.258 361.639 207.904 366.438 254.307 366.177Z" fill="#C0D8EB"/>
<path opacity="0.5" d="M337.172 354.441C337.172 360.577 299.789 365.811 253.695 365.992C207.602 366.172 170.037 361.48 170.037 355.344C170.037 349.208 207.42 343.974 253.514 343.794C299.789 343.433 337.172 348.305 337.172 354.441Z" fill="#BFD8EA"/>
<path opacity="0.5" d="M253.217 365.998C299.019 365.741 336.121 360.604 336.087 354.524C336.052 348.444 298.895 343.723 253.092 343.98C207.29 344.237 170.188 349.374 170.223 355.454C170.257 361.534 207.415 366.255 253.217 365.998Z" fill="#BED7EA"/>
<path opacity="0.5" d="M335.176 354.441C335.176 360.577 298.337 365.631 252.788 365.991C207.239 366.172 170.4 361.48 170.219 355.524C170.219 349.388 207.057 344.335 252.607 343.974C298.156 343.613 335.176 348.486 335.176 354.441Z" fill="#BDD7EA"/>
<path opacity="0.5" d="M252.309 365.997C297.51 365.744 334.124 360.61 334.09 354.53C334.055 348.45 297.385 343.727 252.184 343.98C206.983 344.234 170.369 349.368 170.403 355.448C170.438 361.528 207.108 366.251 252.309 365.997Z" fill="#BCD6E9"/>
<path opacity="0.5" d="M332.998 354.441C332.998 360.397 296.704 365.45 251.699 365.811C206.876 365.991 170.4 361.48 170.4 355.344C170.4 349.388 206.695 344.335 251.699 343.974C296.704 343.613 332.998 348.486 332.998 354.441Z" fill="#BBD5E9"/>
<path opacity="0.5" d="M332.091 354.442C332.091 360.397 295.978 365.45 251.337 365.631C206.695 365.811 170.582 361.299 170.582 355.344C170.582 349.388 206.695 344.335 251.337 344.155C295.797 343.974 331.91 348.486 332.091 354.442Z" fill="#BAD5E9"/>
<path opacity="0.5" d="M250.856 365.636C295.155 365.388 331.039 360.419 331.006 354.539C330.973 348.658 295.034 344.092 250.736 344.341C206.437 344.589 170.552 349.558 170.586 355.439C170.619 361.319 206.557 365.885 250.856 365.636Z" fill="#B9D4E9"/>
<path opacity="0.5" d="M250.312 365.636C294.31 365.389 329.951 360.422 329.917 354.542C329.884 348.661 294.189 344.094 250.191 344.341C206.193 344.588 170.552 349.555 170.586 355.436C170.619 361.316 206.314 365.883 250.312 365.636Z" fill="#B8D4E8"/>
<path opacity="0.5" d="M328.825 354.442C328.825 360.217 293.438 365.27 249.885 365.45C206.15 365.631 170.764 361.119 170.764 355.344C170.764 349.569 206.151 344.516 249.704 344.335C293.438 344.155 328.825 348.667 328.825 354.442Z" fill="#B7D3E8"/>
<path opacity="0.5" d="M327.736 354.442C327.736 360.217 292.712 365.089 249.341 365.45C205.969 365.631 170.764 361.119 170.764 355.344C170.764 349.569 205.788 344.696 249.159 344.335C292.531 344.155 327.736 348.667 327.736 354.442Z" fill="#B6D2E8"/>
<path opacity="0.5" d="M248.858 365.456C291.854 365.215 326.683 360.333 326.65 354.552C326.617 348.771 291.736 344.28 248.74 344.521C205.744 344.763 170.915 349.644 170.948 355.425C170.981 361.206 205.862 365.697 248.858 365.456Z" fill="#B5D2E7"/>
<path opacity="0.5" d="M325.739 354.441C325.739 360.216 291.078 364.909 248.432 365.27C205.787 365.45 170.944 361.119 170.944 355.344C170.944 349.569 205.605 344.877 248.251 344.516C291.078 344.335 325.739 348.847 325.739 354.441Z" fill="#B4D1E7"/>
<path opacity="0.5" d="M247.951 365.275C290.346 365.037 324.687 360.239 324.655 354.558C324.623 348.877 290.229 344.464 247.834 344.702C205.44 344.94 171.098 349.738 171.131 355.419C171.163 361.1 205.557 365.513 247.951 365.275Z" fill="#B3D1E7"/>
<path opacity="0.5" d="M323.561 354.622C323.561 360.217 289.445 364.909 247.344 365.27C205.242 365.45 171.126 361.119 170.944 355.524C170.944 349.93 205.061 345.238 247.162 344.877C289.445 344.516 323.561 348.847 323.561 354.622Z" fill="#B2D0E6"/>
<path opacity="0.5" d="M322.473 354.622C322.473 360.216 288.719 364.909 246.799 365.089C205.061 365.27 171.126 360.938 171.126 355.344C171.126 349.749 204.88 345.057 246.799 344.877C288.538 344.696 322.473 349.027 322.473 354.622Z" fill="#B1CFE6"/>
<path opacity="0.5" d="M321.565 354.622C321.565 360.216 287.993 364.909 246.437 365.089C204.88 365.27 171.308 360.938 171.308 355.524C171.308 349.93 204.88 345.238 246.437 345.057C287.812 344.696 321.565 349.027 321.565 354.622Z" fill="#B0CFE6"/>
<path opacity="0.5" d="M320.477 354.622C320.477 360.036 287.086 364.728 245.892 364.909C204.698 365.089 171.308 360.938 171.308 355.344C171.308 349.93 204.698 345.238 245.892 345.057C287.086 344.696 320.477 349.027 320.477 354.622Z" fill="#AFCEE5"/>
<path opacity="0.5" d="M319.388 354.622C319.388 360.036 286.36 364.728 245.348 364.909C204.517 365.089 171.308 360.938 171.308 355.524C171.308 350.11 204.335 345.418 245.348 345.238C286.36 345.057 319.388 349.027 319.388 354.622Z" fill="#AECDE5"/>
<path opacity="0.5" d="M318.3 354.622C318.3 360.036 285.454 364.548 244.986 364.909C204.336 365.089 171.49 360.938 171.49 355.524C171.49 350.11 204.336 345.599 244.804 345.238C285.454 344.877 318.3 349.208 318.3 354.622Z" fill="#ADCDE5"/>
<path opacity="0.5" d="M244.499 364.734C284.789 364.508 317.426 359.961 317.395 354.579C317.365 349.197 284.679 345.017 244.389 345.243C204.099 345.469 171.462 350.015 171.493 355.398C171.523 360.78 204.209 364.96 244.499 364.734Z" fill="#ACCCE4"/>
<path opacity="0.5" d="M316.304 354.622C316.304 360.036 284.002 364.548 244.079 364.728C204.155 364.909 171.672 360.758 171.672 355.524C171.672 350.11 203.974 345.598 243.897 345.418C283.821 345.057 316.304 349.208 316.304 354.622Z" fill="#ABCCE4"/>
<path opacity="0.5" d="M315.216 354.622C315.216 359.856 283.095 364.367 243.534 364.548C203.974 364.728 171.672 360.577 171.672 355.344C171.672 350.11 203.792 345.598 243.353 345.418C282.914 345.238 315.216 349.208 315.216 354.622Z" fill="#AACBE4"/>
<path opacity="0.5" d="M314.127 354.622C314.127 359.856 282.369 364.367 242.99 364.548C203.611 364.728 171.672 360.758 171.672 355.524C171.672 350.291 203.429 345.779 242.808 345.599C282.188 345.238 314.127 349.388 314.127 354.622Z" fill="#A9CAE3"/>
<path opacity="0.5" d="M242.5 364.373C281.487 364.154 313.069 359.776 313.039 354.593C313.01 349.41 281.381 345.386 242.394 345.604C203.407 345.823 171.826 350.202 171.855 355.385C171.884 360.568 203.513 364.592 242.5 364.373Z" fill="#A8CAE3"/>
<path opacity="0.5" d="M312.129 354.622C312.129 359.856 280.734 364.187 242.081 364.367C203.427 364.548 172.033 360.578 171.852 355.344C171.852 350.11 203.246 345.779 241.899 345.599C280.553 345.418 311.947 349.388 312.129 354.622Z" fill="#A7C9E3"/>
<path opacity="0.5" d="M311.04 354.622C311.04 359.675 280.008 364.006 241.537 364.367C203.065 364.548 172.033 360.577 172.033 355.524C172.033 350.471 203.065 346.14 241.537 345.779C280.008 345.418 311.04 349.388 311.04 354.622Z" fill="#A6C8E2"/>
<path opacity="0.5" d="M309.951 354.622C309.951 359.675 279.101 364.006 240.992 364.187C202.883 364.367 172.033 360.397 172.033 355.344C172.033 350.291 202.883 345.959 240.992 345.779C279.101 345.599 309.951 349.569 309.951 354.622Z" fill="#A4C8E2"/>
<path opacity="0.5" d="M308.862 354.622C308.862 359.675 278.375 364.006 240.448 364.187C202.702 364.367 172.033 360.397 172.033 355.524C172.033 350.471 202.52 346.14 240.448 345.959C278.194 345.598 308.862 349.569 308.862 354.622Z" fill="#A3C7E2"/>
<path opacity="0.5" d="M307.773 354.622C307.773 359.675 277.468 363.826 239.903 364.006C202.52 364.187 172.033 360.397 172.033 355.344C172.033 350.291 202.339 346.14 239.903 345.959C277.468 345.779 307.773 349.569 307.773 354.622Z" fill="#A2C6E1"/>
<path opacity="0.5" d="M306.866 354.622C306.866 359.495 276.742 363.826 239.541 364.006C202.339 364.187 172.215 360.397 172.215 355.344C172.215 350.471 202.339 346.14 239.359 345.959C276.561 345.779 306.685 349.749 306.866 354.622Z" fill="#A1C6E1"/>
<path opacity="0.5" d="M239.051 363.832C275.933 363.625 305.809 359.498 305.782 354.614C305.754 349.73 275.832 345.939 238.95 346.146C202.068 346.353 172.191 350.48 172.219 355.363C172.247 360.247 202.168 364.039 239.051 363.832Z" fill="#A0C5E0"/>
<path opacity="0.5" d="M304.688 354.622C304.688 359.495 275.108 363.645 238.632 363.826C202.157 364.006 172.396 360.217 172.396 355.344C172.396 350.471 201.975 346.32 238.451 346.14C275.108 345.96 304.688 349.749 304.688 354.622Z" fill="#9FC4E0"/>
<path opacity="0.5" d="M303.599 354.622C303.599 359.495 274.201 363.465 238.088 363.826C201.794 364.006 172.396 360.217 172.396 355.524C172.396 350.652 201.794 346.681 237.907 346.32C274.201 346.14 303.599 349.749 303.599 354.622Z" fill="#9EC4E0"/>
<path opacity="0.5" d="M302.692 354.622C302.692 359.495 273.656 363.465 237.725 363.646C201.794 363.826 172.577 360.036 172.577 355.344C172.577 350.471 201.612 346.501 237.544 346.32C273.475 346.14 302.51 349.93 302.692 354.622Z" fill="#9DC3DF"/>
<path opacity="0.5" d="M301.603 354.622C301.603 359.314 272.749 363.465 237.181 363.646C201.612 363.826 172.759 360.217 172.577 355.344C172.577 350.652 201.431 346.501 236.999 346.32C272.568 346.14 301.603 349.93 301.603 354.622Z" fill="#9CC2DF"/>
<path opacity="0.5" d="M236.689 363.47C271.967 363.273 300.545 359.315 300.518 354.63C300.492 349.946 271.871 346.308 236.593 346.506C201.314 346.704 172.736 350.662 172.763 355.347C172.79 360.031 201.41 363.668 236.689 363.47Z" fill="#9AC2DF"/>
<path opacity="0.5" d="M299.425 354.622C299.425 359.314 271.116 363.284 236.092 363.465C201.068 363.645 172.759 360.036 172.759 355.344C172.759 350.652 201.068 346.681 236.092 346.501C271.116 346.32 299.425 349.93 299.425 354.622Z" fill="#99C1DE"/>
<path opacity="0.5" d="M298.337 354.622C298.337 359.314 270.209 363.104 235.548 363.284C200.887 363.465 172.759 359.856 172.759 355.163C172.759 350.471 200.887 346.681 235.548 346.501C270.209 346.501 298.337 350.11 298.337 354.622Z" fill="#98C0DE"/>
<path opacity="0.5" d="M297.431 354.622C297.431 359.134 269.666 363.104 235.187 363.285C200.889 363.465 172.942 359.856 172.942 355.344C172.942 350.832 200.707 346.862 235.187 346.681C269.485 346.501 297.25 350.11 297.431 354.622Z" fill="#97BFDE"/>
<path opacity="0.5" d="M234.691 363.29C268.767 363.099 296.37 359.227 296.344 354.642C296.318 350.057 268.673 346.496 234.597 346.687C200.521 346.878 172.918 350.75 172.944 355.334C172.97 359.919 200.615 363.481 234.691 363.29Z" fill="#96BFDD"/>
<path opacity="0.5" d="M295.254 354.622C295.254 359.134 267.852 362.924 234.098 363.104C200.344 363.285 172.942 359.856 172.942 355.344C172.942 350.832 200.344 347.042 234.098 346.862C267.852 346.681 295.254 350.11 295.254 354.622Z" fill="#95BEDD"/>
<path opacity="0.5" d="M294.164 354.622C294.164 359.134 267.125 362.924 233.734 363.104C200.344 363.284 173.123 359.856 173.123 355.344C173.123 350.832 200.162 347.042 233.553 346.862C267.125 346.681 294.164 350.291 294.164 354.622Z" fill="#94BDDC"/>
<path opacity="0.5" d="M293.075 354.622C293.075 359.134 266.218 362.743 233.19 362.924C199.981 363.104 173.123 359.675 173.123 355.163C173.123 350.652 199.981 347.042 233.008 346.862C266.218 346.862 293.075 350.291 293.075 354.622Z" fill="#92BDDC"/>
<path opacity="0.5" d="M292.167 354.622C292.167 358.953 265.672 362.743 232.826 362.924C199.98 363.104 173.304 359.675 173.304 355.344C173.304 351.013 199.798 347.223 232.645 347.042C265.491 346.862 291.986 350.291 292.167 354.622Z" fill="#91BCDC"/>
<path opacity="0.5" d="M291.078 354.622C291.078 358.953 264.765 362.563 232.282 362.743C199.798 362.924 173.304 359.495 173.304 355.163C173.304 350.832 199.617 347.223 232.1 347.042C264.584 347.042 291.078 350.291 291.078 354.622Z" fill="#90BBDB"/>
<path opacity="0.5" d="M289.989 354.802C289.989 359.134 263.858 362.743 231.737 362.923C199.617 363.104 173.485 359.675 173.304 355.524C173.304 351.193 199.435 347.584 231.556 347.403C263.858 347.042 289.989 350.471 289.989 354.802Z" fill="#8FBADB"/>
<path opacity="0.5" d="M288.9 354.803C288.9 359.134 263.131 362.743 231.192 362.924C199.253 363.104 173.484 359.856 173.484 355.524C173.484 351.193 199.253 347.584 231.192 347.403C263.131 347.223 288.9 350.471 288.9 354.803Z" fill="#8EBADB"/>
<path opacity="0.5" d="M287.811 354.803C287.811 358.953 262.224 362.563 230.648 362.743C199.072 362.924 173.484 359.675 173.484 355.344C173.484 351.193 199.072 347.584 230.648 347.403C262.224 347.223 287.811 350.471 287.811 354.803Z" fill="#8DB9DA"/>
<path opacity="0.5" d="M286.904 354.802C286.904 358.953 261.679 362.563 230.285 362.743C199.072 362.923 173.666 359.675 173.666 355.524C173.666 351.373 198.89 347.764 230.285 347.584C261.498 347.403 286.904 350.471 286.904 354.802Z" fill="#8BB8DA"/>
<path opacity="0.5" d="M285.815 354.802C285.815 358.953 260.772 362.382 229.741 362.562C198.709 362.743 173.666 359.495 173.666 355.344C173.666 351.193 198.709 347.764 229.741 347.584C260.591 347.403 285.815 350.652 285.815 354.802Z" fill="#8AB8D9"/>
<path opacity="0.5" d="M229.242 362.388C259.91 362.216 284.753 358.764 284.73 354.677C284.707 350.591 259.826 347.418 229.158 347.59C198.49 347.762 173.647 351.214 173.67 355.3C173.693 359.387 198.574 362.56 229.242 362.388Z" fill="#89B7D9"/>
<path opacity="0.5" d="M283.637 354.802C283.637 358.773 259.139 362.202 228.652 362.382C198.346 362.563 173.666 359.495 173.666 355.344C173.666 351.373 198.165 347.945 228.652 347.764C259.139 347.584 283.637 350.652 283.637 354.802Z" fill="#88B6D9"/>
<path opacity="0.5" d="M228.333 362.207C258.4 362.038 282.756 358.67 282.733 354.683C282.71 350.696 258.318 347.601 228.251 347.77C198.184 347.938 173.828 351.307 173.851 355.294C173.873 359.281 198.266 362.376 228.333 362.207Z" fill="#87B5D8"/>
<path opacity="0.5" d="M281.641 354.802C281.641 358.773 257.505 362.202 227.925 362.202C198.164 362.382 174.028 359.314 174.028 355.344C174.028 351.373 198.164 347.945 227.744 347.945C257.505 347.764 281.641 350.832 281.641 354.802Z" fill="#85B5D8"/>
<path opacity="0.5" d="M280.552 354.802C280.552 358.773 256.779 362.021 227.381 362.202C197.982 362.382 174.028 359.314 174.028 355.344C174.028 351.373 197.801 348.125 227.199 347.945C256.598 347.764 280.552 350.832 280.552 354.802Z" fill="#84B4D8"/>
<path opacity="0.5" d="M279.463 354.802C279.463 358.773 255.872 362.021 226.836 362.202C197.801 362.382 174.028 359.314 174.028 355.524C174.028 351.554 197.62 348.306 226.655 348.125C255.872 347.945 279.463 350.832 279.463 354.802Z" fill="#83B3D7"/>
<path opacity="0.5" d="M278.376 354.802C278.376 358.592 255.148 361.841 226.294 362.021C197.44 362.202 174.212 359.134 174.03 355.344C173.849 351.554 197.259 348.305 226.113 348.125C255.148 347.945 278.376 351.013 278.376 354.802Z" fill="#82B2D7"/>
<path opacity="0.5" d="M277.469 354.802C277.469 358.592 254.422 361.841 225.931 362.021C197.44 362.202 174.394 359.314 174.394 355.344C174.394 351.373 197.44 348.305 225.931 348.125C254.241 347.945 277.288 351.013 277.469 354.802Z" fill="#81B2D6"/>
<path opacity="0.5" d="M276.38 354.802C276.38 358.592 253.515 361.66 225.387 361.841C197.259 362.021 174.394 359.134 174.394 355.344C174.394 351.554 197.259 348.486 225.387 348.306C253.515 348.125 276.38 351.013 276.38 354.802Z" fill="#7FB1D6"/>
<path opacity="0.5" d="M275.291 354.802C275.291 358.592 252.789 361.66 224.843 361.841C196.896 362.021 174.394 359.134 174.394 355.344C174.394 351.554 196.896 348.486 224.843 348.306C252.608 348.125 275.291 351.013 275.291 354.802Z" fill="#7EB0D6"/>
<path opacity="0.5" d="M274.203 354.802C274.203 358.412 251.882 361.66 224.298 361.66C196.714 361.841 174.394 358.953 174.394 355.344C174.394 351.734 196.714 348.486 224.298 348.486C251.882 348.305 274.203 351.193 274.203 354.802Z" fill="#7DAFD5"/>
<path opacity="0.5" d="M273.114 354.802C273.114 358.412 250.974 361.48 223.754 361.66C196.533 361.841 174.394 358.953 174.394 355.344C174.394 351.734 196.533 348.666 223.754 348.486C250.974 348.305 273.114 351.193 273.114 354.802Z" fill="#7CAFD5"/>
<path opacity="0.5" d="M272.206 354.802C272.206 358.412 250.429 361.48 223.39 361.66C196.532 361.841 174.574 358.953 174.574 355.344C174.574 351.734 196.351 348.667 223.39 348.486C250.248 348.486 272.206 351.193 272.206 354.802Z" fill="#7AAED4"/>
<path opacity="0.5" d="M222.887 361.666C249.546 361.517 271.142 358.487 271.121 354.898C271.101 351.31 249.473 348.523 222.813 348.672C196.154 348.822 174.558 351.852 174.579 355.44C174.599 359.028 196.227 361.816 222.887 361.666Z" fill="#79ADD4"/>
<path opacity="0.5" d="M270.027 354.802C270.027 358.231 248.795 361.299 222.482 361.48C196.168 361.66 174.755 358.953 174.755 355.344C174.755 351.915 195.987 348.847 222.3 348.666C248.614 348.666 270.027 351.373 270.027 354.802Z" fill="#78ACD4"/>
<path opacity="0.5" d="M268.938 354.802C268.938 358.231 247.888 361.119 221.937 361.299C195.987 361.48 174.755 358.773 174.755 355.344C174.755 351.915 195.805 348.847 221.756 348.847C247.888 348.666 268.938 351.373 268.938 354.802Z" fill="#77ACD3"/>
<path opacity="0.5" d="M221.432 361.305C247.09 361.161 267.873 358.297 267.854 354.908C267.835 351.52 247.02 348.889 221.363 349.033C195.706 349.177 174.922 352.041 174.941 355.43C174.96 358.818 195.775 361.449 221.432 361.305Z" fill="#75ABD3"/>
<path opacity="0.5" d="M266.944 354.802C266.944 358.231 246.438 361.119 221.032 361.119C195.626 361.299 175.12 358.592 174.939 355.163C174.757 351.734 195.445 348.847 220.851 348.847C246.257 348.847 266.944 351.373 266.944 354.802Z" fill="#74AAD2"/>
<path opacity="0.5" d="M265.855 354.803C265.855 358.231 245.53 360.938 220.487 361.119C195.444 361.299 175.119 358.592 175.119 355.344C175.119 351.915 195.444 349.208 220.487 349.028C245.53 348.847 265.855 351.554 265.855 354.803Z" fill="#73A9D2"/>
<path opacity="0.5" d="M264.766 354.802C264.766 358.051 244.804 360.938 219.942 361.119C195.081 361.299 175.119 358.773 175.119 355.344C175.119 352.095 195.081 349.208 219.942 349.027C244.623 349.027 264.766 351.554 264.766 354.802Z" fill="#72A8D2"/>
<path opacity="0.5" d="M263.677 354.802C263.677 358.051 243.897 360.758 219.398 360.938C194.899 361.119 175.119 358.592 175.119 355.344C175.119 352.095 194.899 349.388 219.398 349.208C243.897 349.027 263.677 351.554 263.677 354.802Z" fill="#70A8D1"/>
<path opacity="0.5" d="M262.77 354.802C262.77 358.051 243.171 360.758 219.035 360.938C194.9 361.119 175.301 358.592 175.301 355.344C175.301 352.095 194.9 349.388 219.035 349.208C242.989 349.208 262.588 351.554 262.77 354.802Z" fill="#6FA7D1"/>
<path opacity="0.5" d="M218.528 360.944C242.381 360.81 261.703 358.116 261.685 354.927C261.667 351.737 242.316 349.26 218.463 349.394C194.609 349.528 175.287 352.222 175.305 355.411C175.323 358.601 194.675 361.078 218.528 360.944Z" fill="#6EA6D0"/>
<path opacity="0.5" d="M260.592 354.803C260.592 357.87 241.538 360.577 217.946 360.758C194.355 360.938 175.301 358.412 175.301 355.344C175.301 352.276 194.355 349.569 217.946 349.388C241.538 349.208 260.592 351.735 260.592 354.803Z" fill="#6CA5D0"/>
<path opacity="0.5" d="M259.503 354.803C259.503 357.87 240.63 360.578 217.402 360.578C194.174 360.578 175.301 358.231 175.301 355.163C175.301 352.095 194.174 349.388 217.402 349.388C240.63 349.388 259.503 351.735 259.503 354.803Z" fill="#6BA5CF"/>
<path opacity="0.5" d="M258.414 354.802C258.414 357.87 239.904 360.397 217.039 360.577C194.174 360.758 175.482 358.412 175.482 355.344C175.482 352.276 193.992 349.749 216.858 349.569C239.904 349.388 258.414 351.915 258.414 354.802Z" fill="#6AA4CF"/>
<path opacity="0.5" d="M257.505 354.802C257.505 357.87 239.177 360.397 216.675 360.577C193.991 360.758 175.662 358.412 175.662 355.344C175.662 352.276 193.991 349.749 216.493 349.569C238.995 349.388 257.505 351.915 257.505 354.802Z" fill="#68A3CF"/>
<path opacity="0.5" d="M256.417 354.983C256.417 357.87 238.451 360.397 216.13 360.577C193.809 360.758 175.662 358.412 175.662 355.344C175.662 352.456 193.628 349.93 215.949 349.749C238.27 349.569 256.417 351.915 256.417 354.983Z" fill="#67A2CE"/>
<path opacity="0.5" d="M255.328 354.983C255.328 357.87 237.544 360.397 215.586 360.577C193.628 360.758 175.844 358.412 175.662 355.524C175.662 352.637 193.446 350.11 215.404 349.93C237.544 349.749 255.328 351.915 255.328 354.983Z" fill="#66A1CE"/>
<path opacity="0.5" d="M254.239 354.983C254.239 357.87 236.636 360.397 215.041 360.397C193.446 360.577 175.844 358.231 175.844 355.344C175.844 352.456 193.446 349.93 215.041 349.93C236.636 349.749 254.239 352.095 254.239 354.983Z" fill="#65A1CD"/>
<path opacity="0.5" d="M253.15 354.983C253.15 357.87 235.911 360.217 214.497 360.397C193.083 360.577 175.844 358.231 175.844 355.524C175.844 352.637 193.083 350.291 214.497 350.11C235.911 349.93 253.15 352.095 253.15 354.983Z" fill="#63A0CD"/>
<path opacity="0.5" d="M252.244 354.983C252.244 357.87 235.186 360.217 214.135 360.217C193.085 360.397 176.026 358.231 176.026 355.344C176.026 352.456 193.085 350.11 214.135 350.11C235.004 349.93 252.244 352.095 252.244 354.983Z" fill="#629FCC"/>
<path opacity="0.5" d="M251.155 354.983C251.155 357.69 234.278 360.036 213.591 360.217C192.903 360.397 176.026 358.231 176.026 355.344C176.026 352.637 192.903 350.291 213.591 350.11C234.278 349.93 251.155 352.095 251.155 354.983Z" fill="#619ECC"/>
<path opacity="0.5" d="M213.077 360.042C233.523 359.927 250.085 357.653 250.07 354.962C250.054 352.271 233.468 350.182 213.022 350.297C192.576 350.411 176.014 352.686 176.03 355.377C176.045 358.068 192.632 360.157 213.077 360.042Z" fill="#5F9DCC"/>
<path opacity="0.5" d="M248.978 354.983C248.978 357.69 232.645 359.856 212.502 360.036C192.359 360.217 176.026 358.051 176.026 355.344C176.026 352.637 192.359 350.471 212.502 350.291C232.645 350.11 248.978 352.276 248.978 354.983Z" fill="#5E9CCB"/>
<path opacity="0.5" d="M248.07 354.983C248.07 357.69 232.101 359.856 212.139 360.036C192.177 360.216 176.208 358.051 176.208 355.524C176.208 352.817 192.177 350.652 212.139 350.471C232.101 350.291 247.889 352.276 248.07 354.983Z" fill="#5D9CCB"/>
<path opacity="0.5" d="M246.982 354.983C246.982 357.509 231.194 359.856 211.595 359.856C191.996 360.036 176.208 357.87 176.208 355.344C176.208 352.817 191.996 350.471 211.595 350.471C231.012 350.291 246.982 352.276 246.982 354.983Z" fill="#5B9BCA"/>
<path opacity="0.5" d="M245.891 354.983C245.891 357.509 230.285 359.675 211.23 359.855C191.994 360.036 176.388 358.051 176.388 355.344C176.388 352.817 191.994 350.652 211.049 350.471C230.285 350.471 245.891 352.456 245.891 354.983Z" fill="#5A9ACA"/>
<path opacity="0.5" d="M244.802 354.983C244.802 357.509 229.559 359.675 210.686 359.675C191.813 359.856 176.388 357.87 176.388 355.344C176.388 352.817 191.631 350.652 210.504 350.652C229.559 350.471 244.802 352.456 244.802 354.983Z" fill="#5899C9"/>
<path opacity="0.5" d="M243.713 354.983C243.713 357.509 228.651 359.495 210.141 359.675C191.631 359.856 176.569 357.87 176.388 355.344C176.388 352.817 191.45 350.832 209.96 350.652C228.651 350.471 243.713 352.456 243.713 354.983Z" fill="#5798C9"/>
<path opacity="0.5" d="M209.627 359.501C227.867 359.398 242.643 357.376 242.63 354.984C242.616 352.592 227.818 350.736 209.578 350.838C191.337 350.94 176.561 352.963 176.574 355.355C176.588 357.747 191.386 359.603 209.627 359.501Z" fill="#5697C9"/>
<path opacity="0.5" d="M241.719 354.983C241.719 357.329 227.201 359.495 209.235 359.495C191.27 359.675 176.752 357.69 176.752 355.344C176.752 352.998 191.27 350.832 209.235 350.832C227.019 350.652 241.719 352.637 241.719 354.983Z" fill="#5497C8"/>
<path opacity="0.5" d="M240.63 354.983C240.63 357.329 226.293 359.314 208.691 359.495C191.088 359.675 176.752 357.69 176.752 355.344C176.752 352.998 191.088 351.013 208.691 350.832C226.293 350.832 240.63 352.637 240.63 354.983Z" fill="#5396C8"/>
<path opacity="0.5" d="M239.541 354.983C239.541 357.329 225.568 359.314 208.146 359.314C190.725 359.495 176.752 357.69 176.752 355.344C176.752 352.998 190.725 351.013 208.146 351.013C225.568 350.832 239.541 352.637 239.541 354.983Z" fill="#5295C7"/>
<path opacity="0.5" d="M238.452 354.983C238.452 357.329 224.66 359.134 207.602 359.314C190.544 359.495 176.752 357.69 176.752 355.344C176.752 352.998 190.544 351.193 207.602 351.013C224.66 351.013 238.452 352.637 238.452 354.983Z" fill="#5094C7"/>
<path opacity="0.5" d="M237.544 354.983C237.544 357.149 223.934 359.134 207.238 359.134C190.543 359.314 176.933 357.51 176.933 355.344C176.933 353.178 190.543 351.193 207.238 351.193C223.934 351.013 237.544 352.817 237.544 354.983Z" fill="#4F93C6"/>
<path opacity="0.5" d="M236.455 354.983C236.455 357.149 223.208 358.953 206.694 359.134C190.361 359.314 176.933 357.51 176.933 355.344C176.933 353.178 190.18 351.374 206.694 351.193C223.026 351.193 236.455 352.817 236.455 354.983Z" fill="#4E92C6"/>
<path opacity="0.5" d="M235.366 354.983C235.366 357.149 222.3 358.953 206.149 358.953C189.999 359.134 176.933 357.329 176.933 355.163C176.933 352.998 189.999 351.193 206.149 351.193C222.3 351.193 235.366 352.817 235.366 354.983Z" fill="#4C92C5"/>
<path opacity="0.5" d="M234.278 354.983C234.278 357.149 221.575 358.953 205.787 358.953C189.999 358.953 177.114 357.329 177.114 355.344C177.114 353.359 189.817 351.374 205.605 351.374C221.575 351.193 234.278 352.817 234.278 354.983Z" fill="#4B91C5"/>
<path opacity="0.5" d="M233.37 354.983C233.37 356.968 220.849 358.773 205.424 358.953C189.999 358.953 177.296 357.509 177.296 355.344C177.296 353.359 189.817 351.554 205.242 351.374C220.667 351.374 233.189 352.998 233.37 354.983Z" fill="#4990C5"/>
<path opacity="0.5" d="M232.282 354.983C232.282 356.968 219.942 358.773 204.879 358.773C189.817 358.773 177.477 357.329 177.296 355.344C177.296 353.359 189.636 351.554 204.698 351.554C219.942 351.374 232.282 352.998 232.282 354.983Z" fill="#488FC4"/>
<path opacity="0.5" d="M204.36 358.778C219.193 358.695 231.208 357.011 231.197 355.018C231.185 353.025 219.152 351.476 204.319 351.559C189.486 351.642 177.47 353.326 177.481 355.319C177.493 357.313 189.526 358.861 204.36 358.778Z" fill="#478EC4"/>
<path opacity="0.5" d="M230.104 354.983C230.104 356.968 218.308 358.592 203.791 358.592C189.273 358.592 177.478 357.149 177.478 355.163C177.478 353.178 189.273 351.554 203.791 351.554C218.308 351.554 230.104 353.178 230.104 354.983Z" fill="#458DC3"/>
<path opacity="0.5" d="M229.015 354.983C229.015 356.968 217.401 358.412 203.246 358.592C189.092 358.592 177.478 357.148 177.478 355.344C177.478 353.359 189.092 351.915 203.246 351.734C217.583 351.734 229.015 353.178 229.015 354.983Z" fill="#448CC3"/>
<path opacity="0.5" d="M228.108 354.983C228.108 356.788 216.857 358.412 202.884 358.412C188.91 358.412 177.659 356.968 177.659 355.163C177.659 353.359 188.91 351.734 202.884 351.734C216.857 351.734 228.108 353.178 228.108 354.983Z" fill="#428CC2"/>
<path opacity="0.5" d="M227.019 354.983C227.019 356.788 215.949 358.412 202.339 358.412C188.729 358.412 177.659 357.149 177.659 355.344C177.659 353.539 188.729 351.915 202.339 351.915C215.949 351.735 227.019 353.178 227.019 354.983Z" fill="#418BC2"/>
<path opacity="0.5" d="M225.93 354.983C225.93 356.788 215.224 358.231 201.795 358.412C188.547 358.412 177.659 357.148 177.659 355.344C177.659 353.539 188.366 352.095 201.795 351.915C215.042 351.915 225.93 353.359 225.93 354.983Z" fill="#3F8AC1"/>
<path opacity="0.5" d="M224.842 354.983C224.842 356.787 214.316 358.231 201.25 358.231C188.184 358.231 177.659 356.968 177.659 355.163C177.659 353.359 188.184 351.915 201.25 351.915C214.316 351.915 224.842 353.359 224.842 354.983Z" fill="#3E89C1"/>
<path opacity="0.5" d="M223.753 354.983C223.753 356.607 213.409 358.051 200.706 358.231C188.003 358.231 177.659 356.968 177.659 355.344C177.659 353.719 188.003 352.276 200.706 352.095C213.59 352.095 223.753 353.358 223.753 354.983Z" fill="#3D88C0"/>
<path opacity="0.5" d="M222.845 355.163C222.845 356.788 212.864 358.231 200.524 358.231C188.184 358.231 178.021 356.968 178.021 355.344C178.021 353.72 188.002 352.276 200.342 352.276C212.682 352.095 222.845 353.359 222.845 355.163Z" fill="#3B87C0"/>
<path opacity="0.5" d="M199.817 358.057C211.944 357.989 221.768 356.641 221.758 355.046C221.749 353.451 211.911 352.214 199.784 352.282C187.657 352.35 177.834 353.698 177.843 355.293C177.852 356.887 187.69 358.125 199.817 358.057Z" fill="#3A86C0"/>
<path opacity="0.5" d="M220.667 355.163C220.667 356.788 211.231 358.051 199.435 358.051C187.639 358.051 178.203 356.968 178.021 355.344C178.021 353.72 187.458 352.456 199.254 352.456C211.049 352.276 220.667 353.539 220.667 355.163Z" fill="#3885BF"/>
<path opacity="0.5" d="M198.908 357.876C210.333 357.812 219.589 356.548 219.58 355.053C219.572 353.558 210.303 352.398 198.877 352.462C187.452 352.526 178.196 353.79 178.205 355.285C178.213 356.78 187.482 357.94 198.908 357.876Z" fill="#3784BF"/>
<path opacity="0.5" d="M198.363 357.876C209.488 357.814 218.5 356.551 218.491 355.056C218.483 353.561 209.458 352.4 198.333 352.462C187.208 352.525 178.196 353.787 178.205 355.282C178.213 356.777 187.239 357.939 198.363 357.876Z" fill="#3584BE"/>
<path opacity="0.5" d="M217.583 355.163C217.583 356.607 208.873 357.87 197.985 357.87C187.096 357.87 178.386 356.788 178.386 355.344C178.386 353.9 187.096 352.637 197.985 352.637C208.691 352.456 217.583 353.72 217.583 355.163Z" fill="#3483BE"/>
<path opacity="0.5" d="M216.495 355.164C216.495 356.607 207.965 357.69 197.44 357.871C186.915 357.871 178.386 356.788 178.386 355.344C178.386 353.9 186.915 352.817 197.44 352.637C207.965 352.637 216.495 353.72 216.495 355.164Z" fill="#3282BD"/>
<path opacity="0.5" d="M215.406 355.163C215.406 356.607 207.058 357.69 196.896 357.69C186.733 357.69 178.386 356.607 178.386 355.344C178.386 353.9 186.733 352.817 196.896 352.817C207.058 352.637 215.406 353.72 215.406 355.163Z" fill="#3181BD"/>
<path opacity="0.5" d="M214.317 355.163C214.317 356.427 206.332 357.69 196.351 357.69C186.37 357.69 178.386 356.788 178.386 355.344C178.386 354.081 186.37 352.817 196.351 352.817C206.332 352.817 214.317 353.72 214.317 355.163Z" fill="#2F80BC"/>
<path opacity="0.5" d="M213.409 355.163C213.409 356.427 205.606 357.51 195.988 357.51C186.37 357.51 178.566 356.607 178.566 355.344C178.566 354.081 186.37 352.998 195.988 352.998C205.606 352.817 213.227 353.9 213.409 355.163Z" fill="#2E7FBC"/>
<path opacity="0.5" d="M212.32 355.163C212.32 356.427 204.88 357.51 195.443 357.51C186.188 357.51 178.566 356.607 178.566 355.344C178.566 354.081 186.007 352.998 195.443 352.998C204.88 352.998 212.32 353.9 212.32 355.163Z" fill="#2C7EBB"/>
<path opacity="0.5" d="M211.231 355.163C211.231 356.427 203.972 357.329 194.899 357.51C186.007 357.51 178.566 356.607 178.566 355.344C178.566 354.081 185.825 353.178 194.899 352.998C203.972 352.998 211.231 353.9 211.231 355.163Z" fill="#2B7DBB"/>
<path opacity="0.5" d="M194.55 357.334C203.269 357.286 210.332 356.276 210.326 355.08C210.319 353.884 203.245 352.954 194.525 353.003C185.806 353.052 178.743 354.061 178.75 355.257C178.756 356.453 185.83 357.383 194.55 357.334Z" fill="#2A7CBA"/>
<path opacity="0.5" d="M209.054 355.163C209.054 356.246 202.339 357.148 193.992 357.329C185.644 357.329 178.93 356.427 178.93 355.344C178.93 354.261 185.644 353.359 193.992 353.178C202.339 353.178 209.054 354.081 209.054 355.163Z" fill="#287BBA"/>
<path opacity="0.5" d="M208.146 355.163C208.146 356.246 201.613 357.148 193.628 357.148C185.643 357.148 179.11 356.427 179.11 355.344C179.11 354.261 185.643 353.359 193.628 353.359C201.613 353.178 208.146 354.081 208.146 355.163Z" fill="#277BB9"/>
<path opacity="0.5" d="M207.057 355.163C207.057 356.246 200.705 357.149 193.084 357.149C185.28 357.149 179.11 356.427 179.11 355.344C179.11 354.261 185.462 353.359 193.084 353.359C200.705 353.359 207.057 354.081 207.057 355.163Z" fill="#257AB9"/>
<path opacity="0.5" d="M205.968 355.163C205.968 356.066 199.98 356.968 192.539 356.968C185.099 356.968 179.11 356.246 179.11 355.163C179.11 354.261 185.099 353.359 192.539 353.359C199.98 353.359 205.968 354.261 205.968 355.163Z" fill="#2479B8"/>
<path opacity="0.5" d="M204.879 355.163C204.879 356.066 199.072 356.968 191.995 356.968C184.917 356.968 179.11 356.246 179.11 355.344C179.11 354.441 184.917 353.539 191.995 353.539C199.072 353.539 204.879 354.261 204.879 355.163Z" fill="#2278B8"/>
<path opacity="0.5" d="M203.79 355.163C203.79 356.066 198.346 356.788 191.45 356.968C184.554 356.968 179.11 356.246 179.11 355.344C179.11 354.441 184.554 353.72 191.45 353.539C198.346 353.539 203.79 354.261 203.79 355.163Z" fill="#2177B7"/>
<path opacity="0.5" d="M202.883 355.163C202.883 356.066 197.621 356.788 191.088 356.788C184.555 356.788 179.292 356.066 179.292 355.344C179.292 354.442 184.555 353.72 191.088 353.72C197.621 353.72 202.883 354.261 202.883 355.163Z" fill="#1F76B7"/>
<path opacity="0.5" d="M201.794 355.163C201.794 356.066 196.713 356.607 190.543 356.788C184.373 356.788 179.292 356.246 179.292 355.344C179.292 354.442 184.373 353.9 190.543 353.72C196.713 353.72 201.794 354.442 201.794 355.163Z" fill="#1E75B6"/>
<path opacity="0.5" d="M200.706 355.163C200.706 355.885 195.987 356.607 189.999 356.607C184.192 356.607 179.292 356.066 179.292 355.163C179.292 354.442 184.01 353.72 189.999 353.72C195.987 353.72 200.706 354.442 200.706 355.163Z" fill="#1C74B6"/>
<path opacity="0.5" d="M199.617 355.163C199.617 355.885 195.08 356.607 189.454 356.607C183.829 356.607 179.292 356.066 179.292 355.344C179.292 354.622 183.829 353.9 189.454 353.9C195.08 353.9 199.617 354.441 199.617 355.163Z" fill="#1A73B6"/>
<path opacity="0.5" d="M198.711 355.163C198.711 355.885 194.537 356.427 189.274 356.427C184.012 356.427 179.656 355.885 179.656 355.163C179.656 354.441 183.83 353.9 189.093 353.9C194.355 353.9 198.529 354.441 198.711 355.163Z" fill="#1972B5"/>
<path opacity="0.5" d="M197.622 355.163C197.622 355.885 193.63 356.427 188.73 356.427C183.83 356.427 179.838 355.885 179.838 355.344C179.838 354.622 183.83 354.081 188.73 354.081C193.63 354.081 197.622 354.622 197.622 355.163Z" fill="#1771B5"/>
<path opacity="0.5" d="M196.533 355.163C196.533 355.705 192.722 356.246 188.186 356.246C183.467 356.246 179.838 355.705 179.838 355.163C179.838 354.622 183.649 354.081 188.186 354.081C192.722 354.081 196.533 354.622 196.533 355.163Z" fill="#1670B4"/>
<path opacity="0.5" d="M195.444 355.163C195.444 355.705 191.996 356.246 187.641 356.246C183.286 356.246 179.838 355.885 179.838 355.163C179.838 354.622 183.286 354.081 187.641 354.081C191.996 354.261 195.444 354.622 195.444 355.163Z" fill="#146FB4"/>
<path opacity="0.5" d="M194.356 355.163C194.356 355.705 191.089 356.066 187.097 356.246C183.104 356.246 179.838 355.885 179.838 355.344C179.838 354.802 183.104 354.441 187.097 354.261C191.089 354.261 194.356 354.622 194.356 355.163Z" fill="#136EB3"/>
<path opacity="0.5" d="M193.447 355.163C193.447 355.705 190.362 356.066 186.733 356.066C183.104 356.066 180.019 355.705 180.019 355.163C180.019 354.622 183.104 354.261 186.733 354.261C190.362 354.441 193.447 354.802 193.447 355.163Z" fill="#116EB3"/>
<path opacity="0.5" d="M192.359 355.163C192.359 355.704 189.636 356.065 186.189 356.065C182.741 356.065 180.019 355.704 180.019 355.343C180.019 354.802 182.741 354.442 186.189 354.442C189.636 354.442 192.359 354.802 192.359 355.163Z" fill="#106DB2"/>
<path opacity="0.5" d="M191.27 355.163C191.27 355.524 188.729 355.884 185.644 355.884C182.559 355.884 180.019 355.524 180.019 355.163C180.019 354.802 182.559 354.442 185.644 354.442C188.729 354.442 191.27 354.802 191.27 355.163Z" fill="#0E6CB2"/>
<path opacity="0.5" d="M190.181 355.163C190.181 355.524 188.003 355.884 185.1 355.884C182.378 355.884 180.019 355.524 180.019 355.163C180.019 354.802 182.196 354.442 185.1 354.442C188.003 354.622 190.181 354.802 190.181 355.163Z" fill="#0D6BB1"/>
<path opacity="0.5" d="M189.092 355.344C189.092 355.704 187.096 355.885 184.555 355.885C182.015 355.885 180.019 355.704 180.019 355.344C180.019 354.983 182.015 354.802 184.555 354.802C187.096 354.622 189.092 354.983 189.092 355.344Z" fill="#0B6AB1"/>
<path opacity="0.5" d="M188.184 355.344C188.184 355.704 186.369 355.885 184.192 355.885C182.014 355.885 180.199 355.704 180.199 355.344C180.199 354.983 182.014 354.802 184.192 354.802C186.369 354.802 188.184 354.983 188.184 355.344Z" fill="#0969B0"/>
<path opacity="0.5" d="M187.095 355.344C187.095 355.524 185.643 355.885 183.647 355.885C181.832 355.885 180.199 355.704 180.199 355.524C180.199 355.344 181.651 354.983 183.647 354.983C185.643 354.803 187.095 354.983 187.095 355.344Z" fill="#0868B0"/>
<path opacity="0.5" d="M186.008 355.344C186.008 355.524 184.737 355.704 183.286 355.704C181.834 355.704 180.563 355.524 180.563 355.344C180.563 355.163 181.834 354.983 183.286 354.983C184.737 354.983 186.008 354.983 186.008 355.344Z" fill="#0667AF"/>
<path opacity="0.5" d="M184.919 355.344C184.919 355.524 183.83 355.704 182.741 355.704C181.471 355.704 180.563 355.524 180.563 355.344C180.563 355.163 181.652 354.983 182.741 354.983C184.011 354.983 184.919 355.163 184.919 355.344Z" fill="#0566AF"/>
<path opacity="0.5" d="M183.83 355.344C183.83 355.524 183.104 355.524 182.197 355.524C181.289 355.524 180.563 355.344 180.563 355.344C180.563 355.163 181.289 355.163 182.197 355.163C183.104 354.983 183.83 355.163 183.83 355.344Z" fill="#0365AE"/>
<path opacity="0.5" d="M182.923 355.344C182.923 355.344 182.378 355.524 181.834 355.524C181.29 355.524 180.745 355.524 180.745 355.344C180.745 355.344 181.29 355.163 181.834 355.163C182.378 355.163 182.923 355.163 182.923 355.344Z" fill="#0264AE"/>
<path opacity="0.5" d="M181.834 355.344C181.834 355.344 181.652 355.344 181.29 355.344C180.927 355.344 180.745 355.344 180.745 355.344C180.745 355.344 180.927 355.344 181.29 355.344C181.652 355.164 181.834 355.344 181.834 355.344Z" fill="#0063AD"/>
</g>
</g>
<g opacity="0.5">
<path opacity="0.5" d="M126.304 174.875L107.976 164.407L98.7207 167.115L117.231 177.401L126.304 174.875Z" fill="#59BDEF"/>
<path opacity="0.5" d="M121.95 117.485L124.672 127.05L143.001 137.337L140.46 127.772L121.95 117.485Z" fill="#59BDEF"/>
<path opacity="0.5" d="M24.8629 125.787L43.3729 136.074L40.6508 127.05L22.3223 116.583L24.8629 125.787Z" fill="#59BDEF"/>
<path opacity="0.5" d="M127.937 138.781L133.199 157.369L119.771 161.159L138.099 171.446L151.709 167.656L146.447 149.068L127.937 138.781Z" fill="#59BDEF"/>
<path opacity="0.5" d="M37.3836 115.32L33.5727 101.785L95.0913 84.64L76.5813 74.3533L15.2441 91.4979L19.055 105.033L37.3836 115.32Z" fill="#59BDEF"/>
<path opacity="0.5" d="M80.7552 171.987L55.5308 179.206L48.2719 153.94L29.9434 143.653L45.1869 197.433L99.2652 182.274L80.7552 171.987Z" fill="#59BDEF"/>
<path opacity="0.5" d="M88.377 71.1049L106.887 81.3916L112.694 84.64L131.023 94.9268L121.768 61.7205L88.377 71.1049Z" fill="#59BDEF"/>
<path opacity="0.5" d="M115.96 96.3705L118.682 105.755L137.011 116.042L134.47 106.657L115.96 96.3705Z" fill="#59BDEF"/>
</g>
<path d="M199.981 175.777H164.231L177.116 162.964H212.866L199.981 175.777ZM170.764 173.07H198.711L206.151 165.671H178.205L170.764 173.07Z" fill="#59BDEF" fill-opacity="0.5"/>
<path d="M206.877 104.311H171.309L157.88 91.1367H193.63L206.877 104.311ZM172.398 101.604H200.344L192.541 93.8438H164.594L172.398 101.604Z" fill="#59BDEF" fill-opacity="0.5"/>
<path d="M75.1283 175.777H39.3786L26.4941 162.964H62.2439L75.1283 175.777ZM40.6489 173.07H68.5954L61.1551 165.671H33.2086L40.6489 173.07Z" fill="#59BDEF" fill-opacity="0.5"/>
<path d="M223.027 152.677H187.278L203.61 136.435L181.471 114.598H217.22L239.36 136.615L223.027 152.677ZM193.992 149.97H221.939L235.549 136.435L216.132 117.305H188.185L207.602 136.615L193.992 149.97Z" fill="#59BDEF" fill-opacity="0.5"/>
<path d="M52.0821 152.677H16.3324L0 136.434L69.3219 67.4952H105.072L35.7498 136.615L52.0821 152.677ZM17.4212 149.97H45.3677L31.7574 136.434L98.3572 70.3827H70.4107L3.81089 136.615L17.4212 149.97Z" fill="#59BDEF" fill-opacity="0.5"/>
<path d="M119.77 255.544L56.6182 192.741H92.3679L119.77 219.992L147.172 192.741H182.922L119.77 255.544ZM63.1511 195.448L119.77 251.754L176.389 195.448H148.261L119.77 223.962L91.0976 195.448H63.1511Z" fill="#59BDEF" fill-opacity="0.5"/>
<path d="M159.875 57.3891H79.4834L119.77 17.5054L159.875 57.3891ZM86.1978 54.682H153.342L119.77 21.2952L86.1978 54.682Z" fill="#59BDEF" fill-opacity="0.5"/>
<path d="M183.467 80.85H147.717L134.47 67.6758H170.219L183.467 80.85ZM148.806 78.143H176.752L168.949 70.3828H141.003L148.806 78.143Z" fill="#59BDEF" fill-opacity="0.5"/>
<g opacity="0.5">
<path opacity="0.5" d="M569.276 95.1073V94.9268V94.7464V94.5659C568.55 92.9417 567.461 91.3175 566.009 90.5956L565.646 90.4151L517.738 62.8033L469.83 35.1916L469.467 35.0111C468.015 34.2892 466.745 34.2892 465.474 34.8306C465.474 34.8306 465.474 34.8306 465.293 34.8306C465.293 34.8306 465.293 34.8306 465.111 34.8306L458.76 38.44L462.389 40.0642L449.686 106.838C449.323 108.643 449.686 110.447 450.412 112.252V112.432C450.412 112.432 450.412 112.432 450.412 112.613C451.138 114.237 452.227 115.861 453.679 116.583L549.314 171.446L548.407 175.597L554.395 172.168C554.395 172.168 554.395 172.168 554.577 172.168C555.665 171.626 556.573 170.363 556.936 168.558L569.82 100.16C570.183 98.5362 570.002 96.7315 569.276 95.1073Z" fill="#DEF6FF"/>
<g opacity="0.5">
<path opacity="0.5" d="M544.23 175.597L447.506 120.012C444.602 118.388 442.788 113.876 443.514 109.906L456.217 42.5908C456.942 38.801 459.846 36.9963 462.749 38.6205L559.473 94.205C562.377 95.8292 564.192 100.341 563.466 104.311L550.763 171.626C550.037 175.597 547.133 177.221 544.23 175.597Z" fill="url(#paint0_linear)"/>
<path opacity="0.5" d="M559.294 94.0245L511.385 66.4127L496.323 145.639L543.869 175.416C546.954 177.221 550.039 175.777 550.764 172.168L563.649 103.77C564.375 100.16 562.379 95.8292 559.294 94.0245Z" fill="url(#paint1_linear)"/>
<path opacity="0.5" d="M463.296 38.9781L511.205 66.5899L496.324 145.274L447.871 120.37C444.786 118.565 442.79 114.234 443.334 110.624L456.219 42.2266C457.126 38.6172 460.211 37.1734 463.296 38.9781Z" fill="url(#paint2_linear)"/>
<path opacity="0.5" d="M444.061 115.681C444.786 117.666 446.238 119.29 447.871 120.373L543.688 175.416C545.321 176.319 547.136 176.319 548.406 175.597L505.398 96.9121L444.061 115.681Z" fill="url(#paint3_linear)"/>
<path opacity="0.5" d="M563.105 98.7166C562.38 96.7315 560.928 95.1072 559.295 94.0244L463.478 38.9814C461.845 38.079 460.03 38.079 458.76 38.8009L501.587 117.305L563.105 98.7166Z" fill="url(#paint4_linear)"/>
</g>
</g>
<path d="M121.585 153.038C121.585 152.857 121.766 152.677 121.766 152.496C121.766 152.316 121.947 152.316 121.947 152.135C121.947 151.955 122.129 151.955 122.129 151.774C123.944 147.443 126.847 143.834 130.295 141.849L131.202 141.307L252.244 71.8266L373.285 2.34599L374.192 1.80458C377.64 -0.180576 381.269 -0.180576 384.173 1.26318C384.173 1.26318 384.354 1.26318 384.354 1.44365C384.354 1.44365 384.536 1.44365 384.536 1.62411L400.505 10.828L391.613 14.4374L423.552 182.996C424.459 187.327 423.734 192.199 421.737 196.531C421.737 196.711 421.556 196.711 421.556 196.892C421.556 197.072 421.374 197.072 421.374 197.253C419.56 201.584 416.656 205.193 413.208 207.178L171.852 345.959L174.03 356.607L158.968 347.944C158.968 347.944 158.786 347.944 158.786 347.764C155.883 346.14 153.523 343.072 152.798 338.74L119.951 166.031C119.225 161.881 119.951 157.188 121.585 153.038Z" fill="#DDF4FE"/>
<path d="M184.917 356.427L428.995 216.202C436.435 212.051 440.79 200.501 438.976 190.756L406.674 20.5736C404.859 10.8283 397.237 6.31657 389.979 10.4674L145.9 150.872C138.46 155.023 134.105 166.573 135.919 176.318L168.221 346.501C170.036 356.246 177.658 360.758 184.917 356.427Z" fill="url(#paint5_linear)"/>
<path d="M146.991 150.331L268.032 80.8502L305.96 280.81L186.007 355.885C178.023 360.397 170.219 356.787 168.586 347.583L135.74 175.055C133.925 165.851 139.006 154.843 146.991 150.331Z" fill="url(#paint6_linear)"/>
<path d="M389.073 11.1891L268.032 80.6697L305.778 279.366L428.089 216.743C436.074 212.232 440.974 201.043 439.341 192.019L406.676 19.3102C404.861 10.2867 397.058 6.67733 389.073 11.1891Z" fill="url(#paint7_linear)"/>
<path d="M437.888 205.013C435.892 209.886 432.444 214.398 428.27 216.744L186.188 355.885C181.833 358.412 177.659 358.412 174.393 356.427L282.912 157.55L437.888 205.013Z" fill="url(#paint8_linear)"/>
<path d="M137.192 162.061C139.189 157.189 142.637 152.677 146.81 150.331L389.074 11.189C393.429 8.66248 397.603 8.66248 400.87 10.6476L292.531 209.344L137.192 162.061Z" fill="url(#paint9_linear)"/>
<path d="M552.663 204.422L550.354 202.126L548.045 204.422L550.354 206.718L552.663 204.422Z" fill="#DEF6FF"/>
<path d="M561.102 204.325L558.793 202.029L556.484 204.325L558.793 206.622L561.102 204.325Z" fill="#DEF6FF"/>
<path d="M556.844 200.284L554.534 197.989L552.224 200.284L554.534 202.58L556.844 200.284Z" fill="#DEF6FF"/>
<path d="M556.923 208.463L554.614 206.166L552.305 208.463L554.614 210.759L556.923 208.463Z" fill="#DEF6FF"/>
<path d="M507.391 274.855H472.911V280.449H507.391V274.855Z" fill="#DEF6FF"/>
<path d="M549.676 274.855H515.196V280.449H549.676V274.855Z" fill="#DEF6FF"/>
<path d="M503.037 294.345H472.731V287.126H503.037V294.345ZM474.546 292.541H501.404V288.751H474.546V292.541Z" fill="#DEF6FF"/>
<path d="M482.166 300.662H472.911V306.256H482.166V300.662Z" fill="#DEF6FF"/>
</g>
<defs>
<linearGradient id="paint0_linear" x1="449.967" y1="76.3631" x2="564.753" y2="98.1359" gradientUnits="userSpaceOnUse">
<stop stop-color="#7BDAFF"/>
<stop offset="1" stop-color="#59BDEF"/>
</linearGradient>
<linearGradient id="paint1_linear" x1="567.878" y1="227.866" x2="510.218" y2="118.373" gradientUnits="userSpaceOnUse">
<stop offset="0.7677" stop-color="#59BDEF"/>
<stop offset="0.8452" stop-color="#55B8EB"/>
<stop offset="0.9318" stop-color="#49ABE1"/>
<stop offset="1" stop-color="#3A9BD5"/>
</linearGradient>
<linearGradient id="paint2_linear" x1="410.562" y1="137.373" x2="491.62" y2="102.743" gradientUnits="userSpaceOnUse">
<stop offset="0.7677" stop-color="#59BDEF"/>
<stop offset="0.8452" stop-color="#55B8EB"/>
<stop offset="0.9318" stop-color="#49ABE1"/>
<stop offset="1" stop-color="#3A9BD5"/>
</linearGradient>
<linearGradient id="paint3_linear" x1="480.537" y1="228.677" x2="537.964" y2="128.699" gradientUnits="userSpaceOnUse">
<stop offset="0.7677" stop-color="#3A9BD5"/>
<stop offset="0.8386" stop-color="#3896D2"/>
<stop offset="0.9179" stop-color="#3189C9"/>
<stop offset="1" stop-color="#2573BA"/>
</linearGradient>
<linearGradient id="paint4_linear" x1="478.735" y1="28.7569" x2="586.011" y2="110.804" gradientUnits="userSpaceOnUse">
<stop stop-color="#7BDAFF"/>
<stop offset="1" stop-color="#59BDEF"/>
</linearGradient>
<linearGradient id="paint5_linear" x1="422.996" y1="105.756" x2="133.024" y2="160.758" gradientUnits="userSpaceOnUse">
<stop stop-color="#7BDAFF"/>
<stop offset="1" stop-color="#59BDEF"/>
</linearGradient>
<linearGradient id="paint6_linear" x1="125.136" y1="488.48" x2="270.795" y2="211.883" gradientUnits="userSpaceOnUse">
<stop offset="0.7677" stop-color="#59BDEF"/>
<stop offset="0.8452" stop-color="#55B8EB"/>
<stop offset="0.9318" stop-color="#49ABE1"/>
<stop offset="1" stop-color="#3A9BD5"/>
</linearGradient>
<linearGradient id="paint7_linear" x1="522.545" y1="259.887" x2="317.78" y2="172.406" gradientUnits="userSpaceOnUse">
<stop offset="0.7677" stop-color="#59BDEF"/>
<stop offset="0.8452" stop-color="#55B8EB"/>
<stop offset="0.9318" stop-color="#49ABE1"/>
<stop offset="1" stop-color="#3A9BD5"/>
</linearGradient>
<linearGradient id="paint8_linear" x1="345.776" y1="490.529" x2="200.703" y2="237.966" gradientUnits="userSpaceOnUse">
<stop offset="0.7677" stop-color="#3A9BD5"/>
<stop offset="0.8386" stop-color="#3896D2"/>
<stop offset="0.9179" stop-color="#3189C9"/>
<stop offset="1" stop-color="#2573BA"/>
</linearGradient>
<linearGradient id="paint9_linear" x1="350.33" y1="-14.5055" x2="79.3307" y2="192.761" gradientUnits="userSpaceOnUse">
<stop stop-color="#7BDAFF"/>
<stop offset="1" stop-color="#59BDEF"/>
</linearGradient>
<clipPath id="clip0">
<rect width="570" height="377" fill="white"/>
</clipPath>
</defs>
</svg>
