<svg width="94" height="92" viewBox="0 0 94 92" fill="none" xmlns="http://www.w3.org/2000/svg">
<mask id="path-1-inside-1" fill="white">
<path d="M12.6959 30.0684L13.7543 41.6625C12.2148 42.2905 11.1564 43.7881 11.1564 45.5755C11.1564 47.8943 13.0327 49.7784 15.342 49.7784C16.0155 49.7784 16.689 49.5851 17.2664 49.2953L26.7922 55.1406C27.177 57.0247 28.8609 58.4739 30.8815 58.4739C32.3729 58.4739 33.6719 57.701 34.4417 56.4933L49.5482 54.0778C50.318 55.2372 51.5688 55.9619 53.0602 55.9619C53.9743 55.9619 54.7922 55.672 55.5139 55.1406L63.0671 58.0391L74.7098 67.6525C74.9984 67.8941 75.2871 67.9907 75.6239 67.9907C75.9125 67.9907 76.2012 67.8941 76.4417 67.7009C76.9709 67.3144 77.2115 66.6381 76.9709 66.0101L72.4967 53.5947L74.4211 50.0199C74.7579 50.1165 75.0947 50.1648 75.4314 50.1648C77.7407 50.1648 79.617 48.2808 79.617 45.962C79.617 44.8026 79.184 43.7881 78.4142 43.0151L80.05 36.8316C81.7819 36.3002 83.0809 34.7061 83.0809 32.822C83.0809 30.5032 81.2046 28.6192 78.8953 28.6192C78.7991 28.6192 78.7029 28.6192 78.6067 28.6192L75.7682 23.2569C76.3455 22.5323 76.7304 21.6144 76.7304 20.5999C76.7304 18.2811 74.8541 16.3971 72.5448 16.3971C71.5826 16.3971 70.7166 16.7352 69.995 17.2666L51.8094 6.01072C51.7132 3.78852 49.885 2.0011 47.6238 2.0011C45.7475 2.0011 44.1599 3.25712 43.6307 4.94793L32.1805 7.17012C31.4107 6.10733 30.208 5.43101 28.8128 5.43101C26.5035 5.43101 24.6272 7.31505 24.6272 9.63387C24.6272 10.2619 24.7715 10.8416 25.0121 11.373L14.8128 22.0009C14.5722 21.9526 14.2835 21.9043 14.043 21.9043C11.7337 21.9043 9.85742 23.7883 9.85742 26.1071C9.85742 27.9428 11.0121 29.537 12.6959 30.0684ZM28.8128 13.885C28.8609 13.885 28.909 13.885 29.0052 13.885L34.9228 29.0539C34.153 29.4887 33.5276 30.1167 33.1427 30.8897L18.2286 26.0105C18.2286 25.0926 17.8918 24.2231 17.3626 23.5468L27.1289 13.4502C27.61 13.7401 28.1874 13.885 28.8128 13.885ZM68.4555 21.5661L60.2768 25.624C59.507 24.8511 58.4486 24.368 57.2939 24.368C57.2458 24.368 57.2458 24.368 57.1977 24.368L50.8472 8.90924C50.8472 8.86093 50.8953 8.86093 50.8953 8.81262L68.4073 19.7304C68.3592 20.0202 68.3111 20.3101 68.3111 20.5999C68.3111 20.9381 68.3592 21.2762 68.4555 21.5661ZM75.1428 34.8993C75.5757 35.6722 76.2493 36.3002 77.0191 36.6867L75.672 41.8557C75.5757 41.8557 75.4795 41.8557 75.3352 41.8557C74.806 41.8557 74.2768 41.9524 73.7957 42.1456L64.2218 32.4355L75.1428 34.8993ZM71.6788 44.0779C71.3902 44.6093 71.1977 45.2373 71.1977 45.8654L56.7166 49.9716C56.3798 49.247 55.8506 48.6673 55.1771 48.2325L58.4486 32.5805C58.9297 32.4355 59.3627 32.194 59.7475 31.9042L71.6788 44.0779ZM48.8266 51.2276L34.9228 53.4498C34.7303 52.4353 34.153 51.5175 33.3351 50.9378L37.0877 36.9283C37.4726 36.9283 37.8094 36.8316 38.1461 36.735L50.2699 48.5223C49.5001 49.1987 48.9709 50.1648 48.8266 51.2276ZM27.2733 52.0972L19.1908 47.1214C19.3832 46.6383 19.4794 46.1069 19.4794 45.5755C19.4794 43.7398 18.2767 42.1456 16.6409 41.6142L15.5825 30.0201C16.2561 29.7786 16.7853 29.3438 17.2664 28.8124L32.854 33.8848C33.0946 34.8027 33.6238 35.5756 34.3454 36.107L30.5929 50.1165C29.1977 50.2131 27.9949 50.9861 27.2733 52.0972ZM54.3111 31.566C54.6479 31.9042 55.0809 32.194 55.562 32.4355L52.5791 46.6866L40.4554 34.8993C40.5035 34.8027 40.5997 34.6577 40.6479 34.5611L54.3111 31.566ZM56.8609 27.4598C56.9572 27.4114 57.0534 27.3631 57.1496 27.2665C57.1977 27.2665 57.1977 27.2665 57.2458 27.2665C57.9675 27.2665 58.5448 27.8462 58.5448 28.5709C58.5448 29.2955 57.9675 29.8752 57.2458 29.8752C56.5242 29.8752 55.9468 29.2955 55.9468 28.5709C55.9468 28.1844 56.1393 27.7979 56.4279 27.5564C56.6204 27.5564 56.7166 27.5081 56.8609 27.4598ZM36.8472 34.0297C36.1255 34.0297 35.5482 33.45 35.5482 32.7254C35.5482 32.0008 36.1255 31.4211 36.8472 31.4211C37.5688 31.4211 38.1461 32.0008 38.1461 32.7254C38.1461 33.45 37.5688 34.0297 36.8472 34.0297ZM54.4554 25.4791C53.5895 26.252 53.0602 27.3631 53.0602 28.5709C53.0602 28.6675 53.0602 28.7641 53.0602 28.8124L40.7922 31.4694C40.4554 30.4549 39.7819 29.5853 38.8678 29.0539L47.8162 10.3585C47.9606 10.3585 48.1049 10.3585 48.2011 10.3102L54.4554 25.4791ZM45.074 9.48894L36.9915 26.3487L31.6513 12.7256C32.3729 12.0493 32.854 11.0831 32.9502 10.0203L43.775 7.89475C44.1118 8.52277 44.5448 9.10247 45.074 9.48894ZM14.043 45.5755C14.043 44.8509 14.6203 44.2712 15.342 44.2712C16.0636 44.2712 16.6409 44.8509 16.6409 45.5755C16.6409 45.9137 16.4966 46.2035 16.3042 46.3967C16.2079 46.4451 16.1598 46.4934 16.1117 46.59C15.9193 46.7349 15.6306 46.8315 15.342 46.8315C14.6203 46.8798 14.043 46.3001 14.043 45.5755ZM30.8334 55.5754C30.1118 55.5754 29.5344 54.9957 29.5344 54.2711C29.5344 53.5464 30.1118 52.9667 30.8334 52.9667C31.5551 52.9667 32.1324 53.5464 32.1324 54.2711C32.1324 54.9957 31.5551 55.5754 30.8334 55.5754ZM51.6651 51.8073C51.6651 51.0827 52.2424 50.503 52.964 50.503C53.6857 50.503 54.263 51.0827 54.263 51.8073C54.263 52.5319 53.6857 53.1117 52.964 53.1117C52.2424 53.0633 51.6651 52.4836 51.6651 51.8073ZM64.6548 55.7203C64.5104 55.6237 64.4142 55.5271 64.2699 55.4788L57.3901 52.8218L71.8232 48.7156L69.562 52.8701C69.3696 53.2566 69.3214 53.6914 69.4658 54.0778L72.3524 62.0971L64.6548 55.7203ZM75.3833 47.3146C74.6617 47.3146 74.0843 46.7349 74.0843 46.0103C74.0843 45.2856 74.6617 44.7059 75.3833 44.7059C76.105 44.7059 76.6823 45.2856 76.6823 46.0103C76.6342 46.7349 76.105 47.3146 75.3833 47.3146ZM80.0981 32.9186C80.0981 33.6433 79.5208 34.223 78.7991 34.223C78.0775 34.223 77.5002 33.6433 77.5002 32.9186C77.5002 32.194 78.0775 31.6143 78.7991 31.6143C79.5208 31.6143 80.0981 32.194 80.0981 32.9186ZM74.806 31.8558L61.4795 28.7641C61.4795 28.7158 61.4795 28.6675 61.4795 28.5709C61.4795 28.4742 61.4795 28.3776 61.4795 28.281L70.0912 23.9815C70.7647 24.4646 71.6307 24.8028 72.5448 24.8028C72.7854 24.8028 73.0259 24.7545 73.2665 24.7545L75.9125 29.9235C75.3352 30.4549 74.9984 31.0829 74.806 31.8558ZM72.4967 19.3439C73.2184 19.3439 73.7957 19.9236 73.7957 20.6482C73.7957 21.3729 73.2184 21.9526 72.4967 21.9526C71.7751 21.9526 71.1977 21.3729 71.1977 20.6482C71.2458 19.9236 71.8232 19.3439 72.4967 19.3439ZM47.6238 4.89962C48.3455 4.89962 48.9228 5.47932 48.9228 6.20395C48.9228 6.63873 48.7303 7.0252 48.3936 7.21843C48.3455 7.26674 48.2974 7.26674 48.2492 7.31505C48.0568 7.41167 47.8644 7.45998 47.6719 7.45998C46.9503 7.45998 46.3729 6.88027 46.3729 6.15564C46.3729 5.47932 46.9503 4.89962 47.6238 4.89962ZM28.8128 8.37784C29.5344 8.37784 30.1118 8.95754 30.1118 9.68217C30.1118 10.4068 29.5344 10.9865 28.8128 10.9865C28.0911 10.9865 27.5138 10.4068 27.5138 9.68217C27.5619 8.95754 28.1392 8.37784 28.8128 8.37784ZM14.043 24.8511C14.7646 24.8511 15.342 25.4308 15.342 26.1554C15.342 26.8801 14.7646 27.4598 14.043 27.4598C13.3213 27.4598 12.744 26.8801 12.744 26.1554C12.744 25.3825 13.3213 24.8511 14.043 24.8511Z"/>
</mask>
<path d="M12.6959 30.0684L13.7543 41.6625C12.2148 42.2905 11.1564 43.7881 11.1564 45.5755C11.1564 47.8943 13.0327 49.7784 15.342 49.7784C16.0155 49.7784 16.689 49.5851 17.2664 49.2953L26.7922 55.1406C27.177 57.0247 28.8609 58.4739 30.8815 58.4739C32.3729 58.4739 33.6719 57.701 34.4417 56.4933L49.5482 54.0778C50.318 55.2372 51.5688 55.9619 53.0602 55.9619C53.9743 55.9619 54.7922 55.672 55.5139 55.1406L63.0671 58.0391L74.7098 67.6525C74.9984 67.8941 75.2871 67.9907 75.6239 67.9907C75.9125 67.9907 76.2012 67.8941 76.4417 67.7009C76.9709 67.3144 77.2115 66.6381 76.9709 66.0101L72.4967 53.5947L74.4211 50.0199C74.7579 50.1165 75.0947 50.1648 75.4314 50.1648C77.7407 50.1648 79.617 48.2808 79.617 45.962C79.617 44.8026 79.184 43.7881 78.4142 43.0151L80.05 36.8316C81.7819 36.3002 83.0809 34.7061 83.0809 32.822C83.0809 30.5032 81.2046 28.6192 78.8953 28.6192C78.7991 28.6192 78.7029 28.6192 78.6067 28.6192L75.7682 23.2569C76.3455 22.5323 76.7304 21.6144 76.7304 20.5999C76.7304 18.2811 74.8541 16.3971 72.5448 16.3971C71.5826 16.3971 70.7166 16.7352 69.995 17.2666L51.8094 6.01072C51.7132 3.78852 49.885 2.0011 47.6238 2.0011C45.7475 2.0011 44.1599 3.25712 43.6307 4.94793L32.1805 7.17012C31.4107 6.10733 30.208 5.43101 28.8128 5.43101C26.5035 5.43101 24.6272 7.31505 24.6272 9.63387C24.6272 10.2619 24.7715 10.8416 25.0121 11.373L14.8128 22.0009C14.5722 21.9526 14.2835 21.9043 14.043 21.9043C11.7337 21.9043 9.85742 23.7883 9.85742 26.1071C9.85742 27.9428 11.0121 29.537 12.6959 30.0684ZM28.8128 13.885C28.8609 13.885 28.909 13.885 29.0052 13.885L34.9228 29.0539C34.153 29.4887 33.5276 30.1167 33.1427 30.8897L18.2286 26.0105C18.2286 25.0926 17.8918 24.2231 17.3626 23.5468L27.1289 13.4502C27.61 13.7401 28.1874 13.885 28.8128 13.885ZM68.4555 21.5661L60.2768 25.624C59.507 24.8511 58.4486 24.368 57.2939 24.368C57.2458 24.368 57.2458 24.368 57.1977 24.368L50.8472 8.90924C50.8472 8.86093 50.8953 8.86093 50.8953 8.81262L68.4073 19.7304C68.3592 20.0202 68.3111 20.3101 68.3111 20.5999C68.3111 20.9381 68.3592 21.2762 68.4555 21.5661ZM75.1428 34.8993C75.5757 35.6722 76.2493 36.3002 77.0191 36.6867L75.672 41.8557C75.5757 41.8557 75.4795 41.8557 75.3352 41.8557C74.806 41.8557 74.2768 41.9524 73.7957 42.1456L64.2218 32.4355L75.1428 34.8993ZM71.6788 44.0779C71.3902 44.6093 71.1977 45.2373 71.1977 45.8654L56.7166 49.9716C56.3798 49.247 55.8506 48.6673 55.1771 48.2325L58.4486 32.5805C58.9297 32.4355 59.3627 32.194 59.7475 31.9042L71.6788 44.0779ZM48.8266 51.2276L34.9228 53.4498C34.7303 52.4353 34.153 51.5175 33.3351 50.9378L37.0877 36.9283C37.4726 36.9283 37.8094 36.8316 38.1461 36.735L50.2699 48.5223C49.5001 49.1987 48.9709 50.1648 48.8266 51.2276ZM27.2733 52.0972L19.1908 47.1214C19.3832 46.6383 19.4794 46.1069 19.4794 45.5755C19.4794 43.7398 18.2767 42.1456 16.6409 41.6142L15.5825 30.0201C16.2561 29.7786 16.7853 29.3438 17.2664 28.8124L32.854 33.8848C33.0946 34.8027 33.6238 35.5756 34.3454 36.107L30.5929 50.1165C29.1977 50.2131 27.9949 50.9861 27.2733 52.0972ZM54.3111 31.566C54.6479 31.9042 55.0809 32.194 55.562 32.4355L52.5791 46.6866L40.4554 34.8993C40.5035 34.8027 40.5997 34.6577 40.6479 34.5611L54.3111 31.566ZM56.8609 27.4598C56.9572 27.4114 57.0534 27.3631 57.1496 27.2665C57.1977 27.2665 57.1977 27.2665 57.2458 27.2665C57.9675 27.2665 58.5448 27.8462 58.5448 28.5709C58.5448 29.2955 57.9675 29.8752 57.2458 29.8752C56.5242 29.8752 55.9468 29.2955 55.9468 28.5709C55.9468 28.1844 56.1393 27.7979 56.4279 27.5564C56.6204 27.5564 56.7166 27.5081 56.8609 27.4598ZM36.8472 34.0297C36.1255 34.0297 35.5482 33.45 35.5482 32.7254C35.5482 32.0008 36.1255 31.4211 36.8472 31.4211C37.5688 31.4211 38.1461 32.0008 38.1461 32.7254C38.1461 33.45 37.5688 34.0297 36.8472 34.0297ZM54.4554 25.4791C53.5895 26.252 53.0602 27.3631 53.0602 28.5709C53.0602 28.6675 53.0602 28.7641 53.0602 28.8124L40.7922 31.4694C40.4554 30.4549 39.7819 29.5853 38.8678 29.0539L47.8162 10.3585C47.9606 10.3585 48.1049 10.3585 48.2011 10.3102L54.4554 25.4791ZM45.074 9.48894L36.9915 26.3487L31.6513 12.7256C32.3729 12.0493 32.854 11.0831 32.9502 10.0203L43.775 7.89475C44.1118 8.52277 44.5448 9.10247 45.074 9.48894ZM14.043 45.5755C14.043 44.8509 14.6203 44.2712 15.342 44.2712C16.0636 44.2712 16.6409 44.8509 16.6409 45.5755C16.6409 45.9137 16.4966 46.2035 16.3042 46.3967C16.2079 46.4451 16.1598 46.4934 16.1117 46.59C15.9193 46.7349 15.6306 46.8315 15.342 46.8315C14.6203 46.8798 14.043 46.3001 14.043 45.5755ZM30.8334 55.5754C30.1118 55.5754 29.5344 54.9957 29.5344 54.2711C29.5344 53.5464 30.1118 52.9667 30.8334 52.9667C31.5551 52.9667 32.1324 53.5464 32.1324 54.2711C32.1324 54.9957 31.5551 55.5754 30.8334 55.5754ZM51.6651 51.8073C51.6651 51.0827 52.2424 50.503 52.964 50.503C53.6857 50.503 54.263 51.0827 54.263 51.8073C54.263 52.5319 53.6857 53.1117 52.964 53.1117C52.2424 53.0633 51.6651 52.4836 51.6651 51.8073ZM64.6548 55.7203C64.5104 55.6237 64.4142 55.5271 64.2699 55.4788L57.3901 52.8218L71.8232 48.7156L69.562 52.8701C69.3696 53.2566 69.3214 53.6914 69.4658 54.0778L72.3524 62.0971L64.6548 55.7203ZM75.3833 47.3146C74.6617 47.3146 74.0843 46.7349 74.0843 46.0103C74.0843 45.2856 74.6617 44.7059 75.3833 44.7059C76.105 44.7059 76.6823 45.2856 76.6823 46.0103C76.6342 46.7349 76.105 47.3146 75.3833 47.3146ZM80.0981 32.9186C80.0981 33.6433 79.5208 34.223 78.7991 34.223C78.0775 34.223 77.5002 33.6433 77.5002 32.9186C77.5002 32.194 78.0775 31.6143 78.7991 31.6143C79.5208 31.6143 80.0981 32.194 80.0981 32.9186ZM74.806 31.8558L61.4795 28.7641C61.4795 28.7158 61.4795 28.6675 61.4795 28.5709C61.4795 28.4742 61.4795 28.3776 61.4795 28.281L70.0912 23.9815C70.7647 24.4646 71.6307 24.8028 72.5448 24.8028C72.7854 24.8028 73.0259 24.7545 73.2665 24.7545L75.9125 29.9235C75.3352 30.4549 74.9984 31.0829 74.806 31.8558ZM72.4967 19.3439C73.2184 19.3439 73.7957 19.9236 73.7957 20.6482C73.7957 21.3729 73.2184 21.9526 72.4967 21.9526C71.7751 21.9526 71.1977 21.3729 71.1977 20.6482C71.2458 19.9236 71.8232 19.3439 72.4967 19.3439ZM47.6238 4.89962C48.3455 4.89962 48.9228 5.47932 48.9228 6.20395C48.9228 6.63873 48.7303 7.0252 48.3936 7.21843C48.3455 7.26674 48.2974 7.26674 48.2492 7.31505C48.0568 7.41167 47.8644 7.45998 47.6719 7.45998C46.9503 7.45998 46.3729 6.88027 46.3729 6.15564C46.3729 5.47932 46.9503 4.89962 47.6238 4.89962ZM28.8128 8.37784C29.5344 8.37784 30.1118 8.95754 30.1118 9.68217C30.1118 10.4068 29.5344 10.9865 28.8128 10.9865C28.0911 10.9865 27.5138 10.4068 27.5138 9.68217C27.5619 8.95754 28.1392 8.37784 28.8128 8.37784ZM14.043 24.8511C14.7646 24.8511 15.342 25.4308 15.342 26.1554C15.342 26.8801 14.7646 27.4598 14.043 27.4598C13.3213 27.4598 12.744 26.8801 12.744 26.1554C12.744 25.3825 13.3213 24.8511 14.043 24.8511Z" fill="#2EA3E6" stroke="#FCFCFF" mask="url(#path-1-inside-1)"/>
<path d="M36.3671 55.0289C36.3671 58.0702 33.9124 60.5321 30.8886 60.5321C27.8649 60.5321 25.4102 58.0702 25.4102 55.0289C25.4102 51.9877 27.8649 49.5258 30.8886 49.5258C33.9124 49.5258 36.3671 51.9877 36.3671 55.0289Z" fill="white" stroke="#2EA3E6"/>
<path d="M31.482 58.9812V58.1087C32.5674 57.8595 33.2797 57.0805 33.2797 56.1458C33.2797 55.4915 33.0762 54.6502 31.3463 54.027C30.2947 53.622 30.1251 53.4038 30.1251 53.0923C30.1251 52.7807 30.3626 52.4379 31.041 52.4379C31.7194 52.4379 32.1604 52.6561 32.33 52.7495C32.3978 52.7807 32.4996 52.7807 32.5674 52.7807C32.6353 52.7495 32.7031 52.6872 32.737 52.6249L33.0084 51.9394C33.0423 51.8148 33.0084 51.6901 32.8727 51.6278C32.4657 51.4097 32.0247 51.2851 31.5498 51.2539V50.475C31.5498 50.3192 31.4141 50.2257 31.2784 50.2257H30.5661C30.4304 50.2257 30.3287 50.3192 30.3287 50.475V51.3162C29.2432 51.5655 28.5987 52.2822 28.5987 53.1857C28.5987 54.3386 29.5824 54.8371 30.634 55.211C31.6176 55.5849 31.7533 55.8965 31.7533 56.2081C31.7533 56.6755 31.3124 56.987 30.6679 56.987C30.1591 56.987 29.6163 56.8313 29.1754 56.582C29.1075 56.5508 29.0058 56.5197 28.9379 56.5508C28.8701 56.582 28.8022 56.6443 28.7683 56.7066L28.5309 57.3921C28.497 57.4856 28.5309 57.6102 28.5987 57.6725C29.0058 57.9218 29.5824 58.1087 30.193 58.1711V58.9812C30.193 59.1058 30.3626 59.2304 30.4983 59.2304H31.2106C31.3802 59.2304 31.482 59.137 31.482 58.9812Z" fill="#2EA3E6"/>
<path d="M53.3066 6.00315C53.3066 9.04441 50.8518 11.5063 47.8281 11.5063C44.8043 11.5063 42.3496 9.04441 42.3496 6.00315C42.3496 2.9619 44.8043 0.5 47.8281 0.5C50.8518 0.5 53.3066 2.9619 53.3066 6.00315Z" fill="white" stroke="#2EA3E6"/>
<path d="M48.4214 9.95542V9.08299C49.5069 8.83372 50.2192 8.05476 50.2192 7.12002C50.2192 6.46569 50.0157 5.62442 48.2857 5.00126C47.2342 4.5962 47.0646 4.37809 47.0646 4.06651C47.0646 3.75493 47.302 3.41219 47.9804 3.41219C48.6589 3.41219 49.0998 3.63029 49.2694 3.72377C49.3373 3.75493 49.439 3.75493 49.5069 3.75493C49.5747 3.72377 49.6426 3.66145 49.6765 3.59914L49.9478 2.91365C49.9818 2.78902 49.9478 2.66439 49.8122 2.60207C49.4051 2.38396 48.9641 2.25933 48.4893 2.22817V1.44922C48.4893 1.29343 48.3536 1.19995 48.2179 1.19995H47.5056C47.3699 1.19995 47.2681 1.29343 47.2681 1.44922V2.29049C46.1827 2.53976 45.5382 3.25639 45.5382 4.15998C45.5382 5.31284 46.5219 5.81137 47.5734 6.18527C48.5571 6.55917 48.6928 6.87075 48.6928 7.18233C48.6928 7.64971 48.2518 7.96129 47.6073 7.96129C47.0985 7.96129 46.5558 7.8055 46.1148 7.55623C46.047 7.52507 45.9452 7.49392 45.8774 7.52507C45.8095 7.55623 45.7417 7.61855 45.7078 7.68086L45.4703 8.36635C45.4364 8.45982 45.4703 8.58445 45.5382 8.64677C45.9452 8.89604 46.5219 9.08299 47.1324 9.1453V9.95542C47.1324 10.08 47.302 10.2047 47.4377 10.2047H48.1501C48.3197 10.2047 48.4214 10.1112 48.4214 9.95542Z" fill="#2EA3E6"/>
<path d="M18.4316 26.0137C18.4316 29.0549 15.9768 31.5168 12.9531 31.5168C9.92935 31.5168 7.47461 29.0549 7.47461 26.0137C7.47461 22.9724 9.92935 20.5105 12.9531 20.5105C15.9768 20.5105 18.4316 22.9724 18.4316 26.0137Z" fill="white" stroke="#2EA3E6"/>
<path d="M13.5464 29.9659V29.0935C14.6319 28.8442 15.3442 28.0653 15.3442 27.1305C15.3442 26.4762 15.1407 25.6349 13.4107 25.0118C12.3592 24.6067 12.1896 24.3886 12.1896 24.077C12.1896 23.7654 12.427 23.4227 13.1054 23.4227C13.7839 23.4227 14.2248 23.6408 14.3944 23.7343C14.4623 23.7654 14.564 23.7654 14.6319 23.7654C14.6997 23.7343 14.7676 23.672 14.8015 23.6096L15.0728 22.9242C15.1068 22.7995 15.0728 22.6749 14.9372 22.6126C14.5301 22.3945 14.0891 22.2698 13.6143 22.2387V21.4597C13.6143 21.3039 13.4786 21.2104 13.3429 21.2104H12.6306C12.4949 21.2104 12.3931 21.3039 12.3931 21.4597V22.301C11.3077 22.5503 10.6632 23.2669 10.6632 24.1705C10.6632 25.3233 11.6469 25.8219 12.6984 26.1958C13.6821 26.5697 13.8178 26.8812 13.8178 27.1928C13.8178 27.6602 13.3768 27.9718 12.7323 27.9718C12.2235 27.9718 11.6808 27.816 11.2398 27.5667C11.172 27.5356 11.0702 27.5044 11.0024 27.5356C10.9345 27.5667 10.8667 27.629 10.8328 27.6914L10.5953 28.3768C10.5614 28.4703 10.5953 28.595 10.6632 28.6573C11.0702 28.9065 11.6469 29.0935 12.2574 29.1558V29.9659C12.2574 30.0905 12.427 30.2152 12.5627 30.2152H13.2751C13.4447 30.2152 13.5464 30.1217 13.5464 29.9659Z" fill="#2EA3E6"/>
<path d="M84.1952 32.0168C84.1952 35.0581 81.7405 37.52 78.7168 37.52C75.693 37.52 73.2383 35.0581 73.2383 32.0168C73.2383 28.9756 75.693 26.5137 78.7168 26.5137C81.7405 26.5137 84.1952 28.9756 84.1952 32.0168Z" fill="white" stroke="#2EA3E6"/>
<path d="M79.3101 35.9691V35.0967C80.3955 34.8474 81.1079 34.0684 81.1079 33.1337C81.1079 32.4794 80.9043 31.6381 79.1744 31.0149C78.1229 30.6099 77.9533 30.3918 77.9533 30.0802C77.9533 29.7686 78.1907 29.4259 78.8691 29.4259C79.5475 29.4259 79.9885 29.644 80.1581 29.7374C80.2259 29.7686 80.3277 29.7686 80.3955 29.7686C80.4634 29.7374 80.5312 29.6751 80.5651 29.6128L80.8365 28.9273C80.8704 28.8027 80.8365 28.6781 80.7008 28.6157C80.2938 28.3976 79.8528 28.273 79.3779 28.2418V27.4629C79.3779 27.3071 79.2422 27.2136 79.1066 27.2136H78.3942C78.2586 27.2136 78.1568 27.3071 78.1568 27.4629V28.3042C77.0713 28.5534 76.4269 29.2701 76.4269 30.1737C76.4269 31.3265 77.4105 31.825 78.4621 32.1989C79.4458 32.5728 79.5815 32.8844 79.5815 33.196C79.5815 33.6634 79.1405 33.975 78.496 33.975C77.9872 33.975 77.4445 33.8192 77.0035 33.5699C76.9357 33.5387 76.8339 33.5076 76.7661 33.5387C76.6982 33.5699 76.6304 33.6322 76.5965 33.6945L76.359 34.38C76.3251 34.4735 76.359 34.5981 76.4269 34.6604C76.8339 34.9097 77.4105 35.0967 78.0211 35.159V35.9691C78.0211 36.0937 78.1907 36.2184 78.3264 36.2184H79.0387C79.2083 36.2184 79.3101 36.1249 79.3101 35.9691Z" fill="#2EA3E6"/>
<path d="M67.7948 90.9791L67.7947 90.979L67.7917 90.9863C67.5897 91.4731 67.1513 91.75 66.6755 91.75H25.3009C24.8351 91.75 24.3874 91.4339 24.1815 90.9791C23.9897 90.5552 24.0977 90.0372 24.4659 89.6662L33.7908 80.6889C34.0406 80.4819 34.32 80.3661 34.6342 80.3661H57.3903C57.7043 80.3661 57.9837 80.4818 58.2334 80.6887L67.5087 89.6644C67.5092 89.6649 67.5097 89.6654 67.5102 89.6659C67.8786 90.037 67.9867 90.5551 67.7948 90.9791ZM28.7835 88.9217L28.3385 89.3515H28.9572H63.1154H63.7341L63.289 88.9217L56.9866 82.8348L56.914 82.7646H56.8129H35.2596H35.1586L35.086 82.8348L28.7835 88.9217Z" fill="#2EA3E6" stroke="#FCFCFF" stroke-width="0.5"/>
<path d="M22.5952 82.4834L23.5562 83.8344C23.9048 84.3417 23.8013 85.1069 23.2778 85.5646C23.0722 85.6848 22.8347 85.7599 22.6064 85.7599C22.2138 85.7599 21.8526 85.5638 21.6057 85.2345L20.6452 83.8843C20.2437 83.32 20.3626 82.6061 20.924 82.2034C21.4847 81.8012 22.1941 81.9196 22.5952 82.4834Z" fill="#2EA3E6" stroke="#FCFCFF" stroke-width="0.5"/>
<path d="M3.6642 59.4905L3.66421 59.4905L3.66279 59.4885C3.26132 58.9241 3.38015 58.2102 3.94155 57.8076C4.50197 57.4056 5.21082 57.5236 5.61199 58.0864C5.61224 58.0868 5.61249 58.0871 5.61275 58.0875L19.2744 77.7469L19.276 77.7491C19.6755 78.3108 19.5598 79.0205 19.0053 79.4242C18.7977 79.5474 18.5567 79.6247 18.3251 79.6247C17.9328 79.6247 17.5719 79.429 17.325 79.1003L3.6642 59.4905Z" fill="#2EA3E6" stroke="#FCFCFF" stroke-width="0.5"/>
<path d="M2.43697 53.4981L2.43696 53.4981L2.43773 53.4992L3.05904 54.363C3.41834 54.9303 3.29517 55.6918 2.7878 56.0934C2.58111 56.2153 2.34159 56.2916 2.11147 56.2916C1.71864 56.2916 1.35722 56.0953 1.11031 55.7657L0.487007 54.8991C0.486888 54.8989 0.486769 54.8988 0.486649 54.8986C0.085608 54.3343 0.204535 53.6207 0.765767 53.2182C1.32654 52.816 2.03594 52.9344 2.43697 53.4981Z" fill="#2EA3E6" stroke="#FCFCFF" stroke-width="0.5"/>
<path d="M90.977 56.1621L90.9771 56.1622L90.9815 56.156L91.6046 55.2897C92.0071 54.7675 92.7633 54.6558 93.2718 55.0485C93.7943 55.4521 93.9076 56.2149 93.5148 56.7276L93.5147 56.7275L93.5103 56.7336L92.8863 57.6013C92.6473 57.92 92.291 58.0789 91.9332 58.0789C91.6914 58.0789 91.4127 57.9959 91.2238 57.8441L91.2238 57.8441L91.22 57.8412C90.6975 57.4376 90.5842 56.6748 90.977 56.1621Z" fill="#2EA3E6" stroke="#FCFCFF" stroke-width="0.5"/>
<path d="M68.3169 86.6932L68.3169 86.6932L68.3192 86.69L87.0809 61.378C87.4831 60.8546 88.2402 60.7423 88.7491 61.1354C89.2717 61.539 89.3849 62.3018 88.9921 62.8145L88.9921 62.8145L88.9898 62.8177L70.2274 88.1307C70.2273 88.1308 70.2272 88.1309 70.2271 88.131C69.9882 88.4507 69.6314 88.61 69.273 88.61C69.0312 88.61 68.7525 88.527 68.5636 88.3752L68.5637 88.3752L68.5599 88.3723C68.0373 87.9687 67.9241 87.2059 68.3169 86.6932Z" fill="#2EA3E6" stroke="#FCFCFF" stroke-width="0.5"/>
<path d="M30.0901 78.9296L30.0732 78.9387L30.0578 78.9503C29.925 79.0503 29.7457 79.0932 29.5346 79.0932C29.0891 79.0932 28.653 78.8475 28.4594 78.4588L28.2356 78.5703L28.4594 78.4588L28.1227 77.7825L28.1227 77.7825L28.1197 77.7767C27.7958 77.167 28.0006 76.4516 28.5942 76.1337C29.1987 75.81 29.9088 76.013 30.2264 76.6075L30.5617 77.2808L30.5616 77.2808L30.5647 77.2866C30.8885 77.8963 30.6838 78.6117 30.0901 78.9296Z" fill="#2EA3E6" stroke="#FCFCFF" stroke-width="0.5"/>
<path d="M21.9128 66.2795L21.9126 66.2791C21.5888 65.6694 21.7935 64.954 22.3872 64.6361C22.9925 64.3119 23.7038 64.516 24.0208 65.1125C24.0208 65.1126 24.0209 65.1126 24.0209 65.1127L27.7252 72.1171L27.7254 72.1175C28.0492 72.7272 27.8445 73.4426 27.2508 73.7605L27.2338 73.7696L27.2184 73.7812C27.0857 73.8811 26.9064 73.9241 26.6953 73.9241C26.2498 73.9241 25.8136 73.6784 25.6201 73.2897L25.6202 73.2897L25.6173 73.2843L21.9128 66.2795Z" fill="#2EA3E6" stroke="#FCFCFF" stroke-width="0.5"/>
<path d="M60.4485 77.4315L60.4487 77.4311L65.4038 68.0596C65.4038 68.0596 65.4039 68.0595 65.4039 68.0594C65.7209 67.4629 66.4321 67.2588 67.0375 67.583C67.644 67.9078 67.8772 68.6292 67.5602 69.226L67.5599 69.2264L62.6078 78.5923C62.3595 79.004 61.9577 79.2381 61.5267 79.2381C61.3743 79.2381 61.2542 79.1889 61.0578 79.1083C61.0271 79.0957 60.9945 79.0823 60.9597 79.0683C60.3617 78.7406 60.1335 78.0246 60.4485 77.4315Z" fill="#2EA3E6" stroke="#FCFCFF" stroke-width="0.5"/>
</svg>
