<svg width="122" height="90" viewBox="0 0 122 90" fill="none" xmlns="http://www.w3.org/2000/svg">
<g clip-path="url(#clip0)">
<path d="M85.1997 55.1584L85.0426 55.335L85.21 55.5018L116.49 86.6706L116.49 86.6707L116.497 86.6773C117.229 87.3517 117.242 88.4813 116.497 89.232C116.082 89.5847 115.685 89.75 115.171 89.75C114.643 89.75 114.189 89.5757 113.852 89.2387L82.6366 58.0698L82.4701 57.9035L82.294 58.0598C76.4849 63.2157 68.8046 66.3734 60.4141 66.3734C42.1478 66.3734 27.3027 51.5499 27.3027 33.3117C27.3027 15.0735 42.1478 0.25 60.4141 0.25C78.6805 0.25 93.5255 15.0735 93.5255 33.3117C93.5255 41.6893 90.3633 49.3581 85.1997 55.1584ZM60.4141 3.90584C44.2139 3.90584 30.9648 17.069 30.9648 33.3117C30.9648 49.4891 44.2135 62.7175 60.4141 62.7175C76.6801 62.7175 89.8635 49.4887 89.8635 33.3117C89.8635 17.069 76.6144 3.90584 60.4141 3.90584Z" fill="#2EA3E6" stroke="#FCFCFF" stroke-width="0.5"/>
<path d="M9.67969 43.7662C9.67969 42.7358 10.4779 41.9383 11.5107 41.9383C12.5385 41.9383 13.3417 42.7957 13.3417 43.7662V46.5584C13.3417 47.5888 12.5436 48.3863 11.5107 48.3863C10.4779 48.3863 9.67969 47.5888 9.67969 46.5584V43.7662Z" fill="#2EA3E6" stroke="#FCFCFF" stroke-width="0.5"/>
<path d="M0.25 37.1429C0.25 36.1125 1.04817 35.3149 2.08102 35.3149C3.11388 35.3149 3.91205 36.1125 3.91205 37.1429V46.5584C3.91205 47.5889 3.11388 48.3864 2.08102 48.3864C1.04817 48.3864 0.25 47.5889 0.25 46.5584V37.1429Z" fill="#2EA3E6" stroke="#FCFCFF" stroke-width="0.5"/>
<path d="M19.4336 32.1429C19.4336 31.1125 20.2318 30.3149 21.2646 30.3149C22.2975 30.3149 23.0956 31.1125 23.0956 32.1429V46.5584C23.0956 47.5889 22.2975 48.3864 21.2646 48.3864C20.2318 48.3864 19.4336 47.5889 19.4336 46.5584V32.1429Z" fill="#2EA3E6" stroke="#FCFCFF" stroke-width="0.5"/>
<path d="M38.8789 32.4026C38.8789 31.3722 39.6771 30.5747 40.7099 30.5747C41.7377 30.5747 42.541 31.432 42.541 32.4026V46.5584C42.541 47.5888 41.7428 48.3864 40.7099 48.3864C39.6771 48.3864 38.8789 47.5888 38.8789 46.5584V32.4026Z" fill="#2EA3E6" stroke="#FCFCFF" stroke-width="0.5"/>
<path d="M49.1543 27.4026C49.1543 26.3722 49.9525 25.5747 50.9853 25.5747C52.0131 25.5747 52.8163 26.432 52.8163 27.4026V46.5584C52.8163 47.5888 52.0182 48.3864 50.9853 48.3864C49.9525 48.3864 49.1543 47.5888 49.1543 46.5584V27.4026Z" fill="#2EA3E6" stroke="#FCFCFF" stroke-width="0.5"/>
<path d="M59.4297 14.6753C59.4297 13.6449 60.2279 12.8474 61.2607 12.8474C62.2936 12.8474 63.0917 13.6449 63.0917 14.6753V46.5584C63.0917 47.5888 62.2936 48.3864 61.2607 48.3864C60.2279 48.3864 59.4297 47.5889 59.4297 46.5584V14.6753Z" fill="#2EA3E6" stroke="#FCFCFF" stroke-width="0.5"/>
<path d="M69.4434 14.6753C69.4434 13.6449 70.2415 12.8474 71.2744 12.8474C72.3072 12.8474 73.1054 13.6449 73.1054 14.6753V46.5584C73.1054 47.5888 72.3072 48.3864 71.2744 48.3864C70.2415 48.3864 69.4434 47.5889 69.4434 46.5584V14.6753Z" fill="#2EA3E6" stroke="#FCFCFF" stroke-width="0.5"/>
<path d="M83.3808 31.8831V46.5584C83.3808 47.5889 82.5826 48.3864 81.5498 48.3864C80.5169 48.3864 79.7188 47.5889 79.7188 46.5584V31.8831C79.7188 30.8527 80.5169 30.0552 81.5498 30.0552C82.5826 30.0552 83.3808 30.8527 83.3808 31.8831Z" fill="#2EA3E6" stroke="#FCFCFF" stroke-width="0.5"/>
<path d="M102.045 46.5584C102.045 47.5888 101.247 48.3864 100.214 48.3864C99.181 48.3864 98.3828 47.5888 98.3828 46.5584V33.2467C98.3828 32.2163 99.181 31.4188 100.214 31.4188C101.247 31.4188 102.045 32.2163 102.045 33.2467V46.5584Z" fill="#2EA3E6" stroke="#FCFCFF" stroke-width="0.5"/>
<path d="M111.734 46.5584C111.734 47.5888 110.936 48.3864 109.903 48.3864C108.87 48.3864 108.072 47.5888 108.072 46.5584V23.2467C108.072 22.2163 108.87 21.4188 109.903 21.4188C110.936 21.4188 111.734 22.2163 111.734 23.2467V46.5584Z" fill="#2EA3E6" stroke="#FCFCFF" stroke-width="0.5"/>
<path d="M118.088 29.0909C118.088 28.0605 118.886 27.263 119.919 27.263C120.952 27.263 121.75 28.0605 121.75 29.0909V46.5585C121.75 47.5889 120.952 48.3864 119.919 48.3864C118.886 48.3864 118.088 47.5889 118.088 46.5585V29.0909Z" fill="#2EA3E6" stroke="#FCFCFF" stroke-width="0.5"/>
</g>
<defs>
<clipPath id="clip0">
<rect width="122" height="90" fill="white"/>
</clipPath>
</defs>
</svg>
