<svg width="90" height="82" viewBox="0 0 90 82" fill="none" xmlns="http://www.w3.org/2000/svg">
<mask id="path-1-inside-1" fill="white">
<path d="M78.0863 78.7715H67.7343L60.5949 69.6689C65.1909 67.0362 69.1621 63.3773 72.1517 58.9599C72.3748 58.6475 72.5979 58.2906 72.821 57.9782C73.2226 57.3089 73.0441 56.4165 72.3748 56.0149C71.7948 55.6579 71.0808 55.7472 70.59 56.1934L47.7442 40.71L75.2306 39.416C75.2306 39.4606 75.2306 39.4606 75.2306 39.5052C75.2306 43.6103 74.6059 47.2246 73.2672 50.705L71.6609 49.0987C71.1255 48.5186 70.1884 48.5186 69.653 49.0987C69.0729 49.6341 69.0729 50.5712 69.653 51.1066L78.4432 60.0754C78.4879 60.1646 78.5771 60.2093 78.6663 60.2539C78.711 60.2539 78.711 60.2985 78.7556 60.2985C78.8002 60.3431 78.8448 60.3431 78.9341 60.3877C78.9787 60.3877 79.0233 60.4324 79.0679 60.4324C79.1125 60.4324 79.1572 60.477 79.2018 60.477C79.291 60.477 79.3803 60.5216 79.4695 60.5216H88.6168C89.4199 60.5216 90.0446 59.8969 90.0446 59.0937C90.0446 58.2906 89.4199 57.6659 88.6168 57.6659H80.0496L75.4537 52.9807C77.2831 48.7864 78.1309 44.5474 78.1309 39.5499C78.1309 33.1245 76.3907 26.8776 73.0441 21.4338C72.6425 20.7645 71.7501 20.5414 71.0808 20.943C70.4115 21.3446 70.1884 22.237 70.59 22.9063C73.1334 27.0561 74.6505 31.7412 75.0967 36.5603L44.71 37.9881V7.64604C53.0094 8.00301 60.9073 11.4388 66.5741 17.2395L63.4507 22.4155C63.0491 23.0848 63.2722 23.9772 63.9415 24.3788C64.1646 24.5127 64.4323 24.6019 64.6554 24.6019C65.1463 24.6019 65.6371 24.3342 65.9048 23.888L78.3094 3.22859H86.6535C87.4566 3.22859 88.0813 2.6039 88.0813 1.80073C88.0813 0.997554 87.4566 0.372864 86.6535 0.372864H77.5062H77.4616C77.417 0.372864 77.3723 0.372864 77.2831 0.372864C77.2385 0.372864 77.1939 0.372864 77.1492 0.372864C77.1046 0.372864 77.06 0.417484 77.0154 0.417484C76.9708 0.417484 76.9261 0.462105 76.8815 0.462105C76.8369 0.462105 76.7923 0.506726 76.7477 0.506726C76.703 0.551347 76.6584 0.551347 76.6138 0.595967C76.5692 0.640588 76.5246 0.640588 76.5246 0.685209C76.4799 0.729829 76.4353 0.729829 76.4353 0.77445C76.3907 0.819071 76.3907 0.819071 76.3461 0.863692C76.3014 0.908312 76.3014 0.952933 76.2568 0.997554C76.2568 0.997554 76.2568 0.997554 76.2568 1.04217L68.0912 14.7407C61.6212 8.40459 52.6971 4.79032 43.3713 4.79032H43.3267H43.2821H43.2375C35.3396 4.79032 27.6649 7.5568 21.5518 12.5097L11.6906 0.908312C11.4229 0.595967 11.0213 0.417484 10.6197 0.417484H1.42786C0.62469 0.372864 0 1.04217 0 1.80073C0 2.55928 0.62469 3.22859 1.42786 3.22859H9.9058L24.7199 20.6307C24.9876 20.943 25.3892 21.1215 25.7908 21.1215C26.1031 21.1215 26.4601 20.9876 26.7278 20.7645C27.3079 20.2737 27.3971 19.3367 26.9063 18.7566L23.3813 14.6069C28.6465 10.3679 35.1165 7.91377 41.8096 7.60142V38.8805L21.4626 62.5295C15.3049 56.7288 11.4675 48.5186 11.4675 39.416C11.4675 32.3659 13.6986 25.6728 17.9822 20.0952C18.473 19.4705 18.3391 18.5781 17.7144 18.0873C17.0897 17.5965 16.1973 17.7303 15.7065 18.355C11.1106 24.5573 8.65642 31.8305 8.65642 39.5052C8.65642 58.6475 24.2291 74.2202 43.3713 74.2202C47.0749 74.2202 50.6891 73.6401 54.1696 72.5246C54.9281 72.3015 55.3297 71.4537 55.1066 70.7397C54.8835 69.9812 54.0357 69.5796 53.3218 69.8027C50.1537 70.829 46.8071 71.3644 43.416 71.3644C35.9643 71.3644 29.1373 68.7764 23.6936 64.4928L43.5945 41.3347L68.9837 58.5137C66.2618 62.1279 62.826 65.1622 58.8547 67.3932L56.5345 64.4482C56.0436 63.8235 55.1512 63.7343 54.5265 64.1805C53.9018 64.6713 53.8126 65.5637 54.2588 66.1884L65.9048 81.0471L65.9494 81.0918C65.9941 81.1364 66.0387 81.181 66.0833 81.2256C66.1279 81.2702 66.1279 81.2702 66.1725 81.3149C66.2172 81.3595 66.2618 81.4041 66.351 81.4041C66.3956 81.4041 66.3956 81.4487 66.4403 81.4487C66.4849 81.4933 66.5741 81.4933 66.6634 81.538C66.708 81.538 66.708 81.538 66.7526 81.5826C66.8419 81.5826 66.9311 81.6272 67.065 81.6272H78.0863C78.8895 81.6272 79.5141 81.0025 79.5141 80.1993C79.5141 79.3962 78.8895 78.7715 78.0863 78.7715Z"/>
</mask>
<path d="M78.0863 78.7715H67.7343L60.5949 69.6689C65.1909 67.0362 69.1621 63.3773 72.1517 58.9599C72.3748 58.6475 72.5979 58.2906 72.821 57.9782C73.2226 57.3089 73.0441 56.4165 72.3748 56.0149C71.7948 55.6579 71.0808 55.7472 70.59 56.1934L47.7442 40.71L75.2306 39.416C75.2306 39.4606 75.2306 39.4606 75.2306 39.5052C75.2306 43.6103 74.6059 47.2246 73.2672 50.705L71.6609 49.0987C71.1255 48.5186 70.1884 48.5186 69.653 49.0987C69.0729 49.6341 69.0729 50.5712 69.653 51.1066L78.4432 60.0754C78.4879 60.1646 78.5771 60.2093 78.6663 60.2539C78.711 60.2539 78.711 60.2985 78.7556 60.2985C78.8002 60.3431 78.8448 60.3431 78.9341 60.3877C78.9787 60.3877 79.0233 60.4324 79.0679 60.4324C79.1125 60.4324 79.1572 60.477 79.2018 60.477C79.291 60.477 79.3803 60.5216 79.4695 60.5216H88.6168C89.4199 60.5216 90.0446 59.8969 90.0446 59.0937C90.0446 58.2906 89.4199 57.6659 88.6168 57.6659H80.0496L75.4537 52.9807C77.2831 48.7864 78.1309 44.5474 78.1309 39.5499C78.1309 33.1245 76.3907 26.8776 73.0441 21.4338C72.6425 20.7645 71.7501 20.5414 71.0808 20.943C70.4115 21.3446 70.1884 22.237 70.59 22.9063C73.1334 27.0561 74.6505 31.7412 75.0967 36.5603L44.71 37.9881V7.64604C53.0094 8.00301 60.9073 11.4388 66.5741 17.2395L63.4507 22.4155C63.0491 23.0848 63.2722 23.9772 63.9415 24.3788C64.1646 24.5127 64.4323 24.6019 64.6554 24.6019C65.1463 24.6019 65.6371 24.3342 65.9048 23.888L78.3094 3.22859H86.6535C87.4566 3.22859 88.0813 2.6039 88.0813 1.80073C88.0813 0.997554 87.4566 0.372864 86.6535 0.372864H77.5062H77.4616C77.417 0.372864 77.3723 0.372864 77.2831 0.372864C77.2385 0.372864 77.1939 0.372864 77.1492 0.372864C77.1046 0.372864 77.06 0.417484 77.0154 0.417484C76.9708 0.417484 76.9261 0.462105 76.8815 0.462105C76.8369 0.462105 76.7923 0.506726 76.7477 0.506726C76.703 0.551347 76.6584 0.551347 76.6138 0.595967C76.5692 0.640588 76.5246 0.640588 76.5246 0.685209C76.4799 0.729829 76.4353 0.729829 76.4353 0.77445C76.3907 0.819071 76.3907 0.819071 76.3461 0.863692C76.3014 0.908312 76.3014 0.952933 76.2568 0.997554C76.2568 0.997554 76.2568 0.997554 76.2568 1.04217L68.0912 14.7407C61.6212 8.40459 52.6971 4.79032 43.3713 4.79032H43.3267H43.2821H43.2375C35.3396 4.79032 27.6649 7.5568 21.5518 12.5097L11.6906 0.908312C11.4229 0.595967 11.0213 0.417484 10.6197 0.417484H1.42786C0.62469 0.372864 0 1.04217 0 1.80073C0 2.55928 0.62469 3.22859 1.42786 3.22859H9.9058L24.7199 20.6307C24.9876 20.943 25.3892 21.1215 25.7908 21.1215C26.1031 21.1215 26.4601 20.9876 26.7278 20.7645C27.3079 20.2737 27.3971 19.3367 26.9063 18.7566L23.3813 14.6069C28.6465 10.3679 35.1165 7.91377 41.8096 7.60142V38.8805L21.4626 62.5295C15.3049 56.7288 11.4675 48.5186 11.4675 39.416C11.4675 32.3659 13.6986 25.6728 17.9822 20.0952C18.473 19.4705 18.3391 18.5781 17.7144 18.0873C17.0897 17.5965 16.1973 17.7303 15.7065 18.355C11.1106 24.5573 8.65642 31.8305 8.65642 39.5052C8.65642 58.6475 24.2291 74.2202 43.3713 74.2202C47.0749 74.2202 50.6891 73.6401 54.1696 72.5246C54.9281 72.3015 55.3297 71.4537 55.1066 70.7397C54.8835 69.9812 54.0357 69.5796 53.3218 69.8027C50.1537 70.829 46.8071 71.3644 43.416 71.3644C35.9643 71.3644 29.1373 68.7764 23.6936 64.4928L43.5945 41.3347L68.9837 58.5137C66.2618 62.1279 62.826 65.1622 58.8547 67.3932L56.5345 64.4482C56.0436 63.8235 55.1512 63.7343 54.5265 64.1805C53.9018 64.6713 53.8126 65.5637 54.2588 66.1884L65.9048 81.0471L65.9494 81.0918C65.9941 81.1364 66.0387 81.181 66.0833 81.2256C66.1279 81.2702 66.1279 81.2702 66.1725 81.3149C66.2172 81.3595 66.2618 81.4041 66.351 81.4041C66.3956 81.4041 66.3956 81.4487 66.4403 81.4487C66.4849 81.4933 66.5741 81.4933 66.6634 81.538C66.708 81.538 66.708 81.538 66.7526 81.5826C66.8419 81.5826 66.9311 81.6272 67.065 81.6272H78.0863C78.8895 81.6272 79.5141 81.0025 79.5141 80.1993C79.5141 79.3962 78.8895 78.7715 78.0863 78.7715Z" fill="#2EA3E6" stroke="#FCFCFF" mask="url(#path-1-inside-1)"/>
</svg>
