<svg width="62" height="62" viewBox="0 0 62 62" fill="none" xmlns="http://www.w3.org/2000/svg">
<path d="M44.3333 25L31 1M31 61L1 25L31 61ZM31 61L61 25L31 61ZM31 61L17.6667 25L31 61ZM31 61L44.3333 25L31 61ZM1 25L14.3333 1L1 25ZM1 25H17.6667H1ZM14.3333 1L17.6667 25L14.3333 1ZM14.3333 1H31H14.3333ZM47.6667 1L61 25L47.6667 1ZM47.6667 1L44.3333 25L47.6667 1ZM47.6667 1H31H47.6667ZM61 25H44.3333H61ZM17.6667 25H44.3333H17.6667ZM17.6667 25L31 1L17.6667 25Z" stroke="#1082C2" stroke-width="2" stroke-linecap="round" stroke-linejoin="round"/>
</svg>
