<svg width="122" height="122" viewBox="0 0 122 122" fill="none" xmlns="http://www.w3.org/2000/svg">
<path d="M60.5528 1.22361C60.8343 1.08284 61.1657 1.08284 61.4472 1.22361L119.211 30.1059C119.948 30.4744 119.948 31.5262 119.211 31.8947L61.4472 60.7764C61.1657 60.9171 60.8343 60.9171 60.5528 60.7764L2.78886 31.8947C2.05181 31.5262 2.0518 30.4744 2.78885 30.1059L60.5528 1.22361Z" stroke="#2EA3E6" stroke-width="2" stroke-linecap="round"/>
<path d="M121 60.9998L61.4472 90.7761C61.1657 90.9169 60.8343 90.9169 60.5528 90.7761L1 60.9998" stroke="#2EA3E6" stroke-width="2" stroke-linecap="round"/>
<path d="M121 91L61.4472 120.776C61.1657 120.917 60.8343 120.917 60.5528 120.776L1 91" stroke="#2EA3E6" stroke-width="2" stroke-linecap="round"/>
</svg>
