<svg width="122" height="110" viewBox="0 0 122 110" fill="none" xmlns="http://www.w3.org/2000/svg">
<path d="M2 54.9998C1.44772 54.9998 1 55.4475 1 55.9998V107.999C1 108.552 1.44772 108.999 2 108.999H23.9999C24.5522 108.999 24.9999 108.552 24.9999 107.999V55.9998C24.9999 55.4475 24.5522 54.9998 23.9999 54.9998H2Z" stroke="#2EA3E6" stroke-width="2" stroke-linecap="round"/>
<path d="M98 24.9995C97.4477 24.9995 97 25.4472 97 25.9995V107.999C97 108.551 97.4477 108.999 98 108.999H120C120.552 108.999 121 108.551 121 107.999V25.9995C121 25.4472 120.552 24.9995 120 24.9995H98Z" stroke="#2EA3E6" stroke-width="2" stroke-linecap="round"/>
<path d="M50.001 1C49.4487 1 49.001 1.44772 49.001 2V107.999C49.001 108.552 49.4487 108.999 50.001 108.999H72.0008C72.5531 108.999 73.0008 108.552 73.0008 107.999V2C73.0008 1.44771 72.5531 1 72.0008 1H50.001Z" stroke="#2EA3E6" stroke-width="2" stroke-linecap="round"/>
</svg>
