<svg width="62" height="62" viewBox="0 0 62 62" fill="none" xmlns="http://www.w3.org/2000/svg">
<path d="M11.5 53.4999C18.5 50.4999 23 47.9999 25 45.9999C28 42.9999 19 42.9999 19 27.9999C19 17.9999 23 12.9999 31 12.9999C39 12.9999 43 17.9999 43 27.9999C43 42.9999 34 42.9999 37 45.9999C39 47.9999 43.5 50.4999 50.5 53.4999" stroke="#1082C2" stroke-width="2" stroke-linecap="round"/>
<path d="M31 61C47.5685 61 61 47.5685 61 31C61 14.4315 47.5685 1 31 1C14.4315 1 1 14.4315 1 31C1 47.5685 14.4315 61 31 61Z" stroke="#1082C2" stroke-width="2" stroke-linecap="round"/>
</svg>
